<svg xmlns="http://www.w3.org/2000/svg" width="479.199" height="498.748" viewBox="0 0 479.199 498.748">
  <g id="Group_11" data-name="Group 11" transform="translate(-428 -123.252)">
    <circle id="Ellipse_1" data-name="Ellipse 1" cx="91.5" cy="91.5" r="91.5" transform="translate(428 439)" fill="#342b71"/>
    <g id="Path_1" data-name="Path 1" transform="translate(724 298) rotate(180)" fill="#342b71">
      <path d="M 0.2915005087852478 126.6843109130859 L -49.88979721069336 10.67704296112061 L 0.1249197274446487 -2.228735446929932 L 144.5 -38.51128005981445 L 144.5 91.60704040527344 L 0.2915005087852478 126.6843109130859 Z" stroke="none"/>
      <path d="M 144 -37.87010192871094 L 0.244537353515625 -1.743240356445312 L -49.19879150390625 11.01509857177734 L 0.5830078125 126.0987854003906 L 144 91.21406555175781 L 144 -37.87010192871094 M 145 -39.15251159667969 L 145 91.99999237060547 L -7.62939453125e-06 127.2697601318359 L -50.580810546875 10.33896636962891 L -7.62939453125e-06 -2.712882995605469 L 145 -39.15251159667969 Z" stroke="none" fill="#342b71"/>
    </g>
    <path id="Path_3" data-name="Path 3" d="M0,0H32V209.277H0Z" transform="translate(579 328)" fill="#342b71"/>
    <g id="Path_2" data-name="Path 2" transform="translate(724 171)" fill="#292448">
      <path d="M 0.5000041723251343 129.0839996337891 L 0.5000041723251343 0.1169299110770226 L 182.699462890625 -47.10186386108398 L 182.699462890625 87.79240417480469 L 0.5000041723251343 129.0839996337891 Z" stroke="none"/>
      <path d="M 182.199462890625 -46.45574951171875 L 1 0.5038833618164062 L 1 128.4580230712891 L 182.199462890625 87.39304351806641 L 182.199462890625 -46.45574951171875 M 183.199462890625 -47.74795532226562 L 183.199462890625 88.19176483154297 L 0 129.7100067138672 L 0 -0.2699966430664062 L 183.199462890625 -47.74795532226562 Z" stroke="none" fill="#292448"/>
    </g>
    <rect id="Rectangle_5" data-name="Rectangle 5" width="31" height="261" rx="15.5" transform="translate(876 226)" fill="#292448"/>
    <circle id="Ellipse_2" data-name="Ellipse 2" cx="91.5" cy="91.5" r="91.5" transform="translate(724 373)" fill="#292448"/>
  </g>
</svg>
