<svg xmlns="http://www.w3.org/2000/svg" xmlns:xlink="http://www.w3.org/1999/xlink" width="1012" height="631.296" viewBox="0 0 1012 631.296">
  <defs>
    <linearGradient id="linear-gradient" x1="-0.232" y1="0.5" x2="0.769" y2="0.5" gradientUnits="objectBoundingBox">
      <stop offset="0" stop-color="gray" stop-opacity="0.251"/>
      <stop offset="0.54" stop-color="gray" stop-opacity="0.122"/>
      <stop offset="1" stop-color="gray" stop-opacity="0.102"/>
    </linearGradient>
    <linearGradient id="linear-gradient-2" x1="-3.46" y1="0.929" x2="-3.46" y2="-0.082" xlink:href="#linear-gradient"/>
  </defs>
  <g id="undraw_compose_music_ovo2" transform="translate(0 -0.009)">
    <ellipse id="Ellipse_36" data-name="Ellipse 36" cx="19.914" cy="18.816" rx="19.914" ry="18.816" transform="translate(887.48 304.007)" fill="#6c63ff" opacity="0.1"/>
    <ellipse id="Ellipse_37" data-name="Ellipse 37" cx="33.374" cy="31.535" rx="33.374" ry="31.535" transform="translate(945.251 207.394)" fill="#6c63ff" opacity="0.1"/>
    <ellipse id="Ellipse_38" data-name="Ellipse 38" cx="19.914" cy="18.816" rx="19.914" ry="18.816" transform="translate(399.285 5.355)" fill="#6c63ff" opacity="0.1"/>
    <ellipse id="Ellipse_39" data-name="Ellipse 39" cx="19.914" cy="18.816" rx="19.914" ry="18.816" transform="translate(627.713 26.981)" fill="#6c63ff" opacity="0.1"/>
    <ellipse id="Ellipse_40" data-name="Ellipse 40" cx="33.374" cy="31.535" rx="33.374" ry="31.535" transform="translate(0 252.256)" fill="#6c63ff" opacity="0.1"/>
    <path id="Path_307" data-name="Path 307" d="M665.711,256.257c-59.586-2.1-116.336-21.618-170.526-42.983S387.31,168.255,329.2,156.938c-37.407-7.281-80.181-8.316-110.324,12.04-29.047,19.625-38.42,53.4-43.428,84.774-3.793,23.61-6.021,48.455,4.364,70.551,7.209,15.345,20.015,28.238,28.872,42.931,30.815,51.134,9.032,114.195-24.361,164.119-15.651,23.418-33.825,45.758-45.914,70.69s-17.7,53.5-7.154,78.937c10.477,25.228,35.455,44.14,62.513,57.415,54.955,27.046,119.687,34.8,182.854,39.146,139.776,9.708,280.307,5.507,420.461,1.3,51.861-1.557,103.962-3.14,154.986-11.309,28.338-4.524,57.588-11.7,78.156-29.021,26.119-21.983,32.592-59.216,15.09-86.783-29.351-46.245-110.48-57.737-131.021-107.366-11.287-27.315.3-57.745,16.719-83.077,35.2-54.353,94.212-102.033,97.315-164.163,2.136-42.626-26.23-85.391-70.091-105.582-45.978-21.165-109.725-18.5-143.625,16.529C779.7,244.278,718.318,258.118,665.711,256.257Z" transform="translate(-105.843 -152.157)" fill="#6c63ff" opacity="0.1"/>
    <path id="Path_308" data-name="Path 308" d="M1523.738,791.412a4.981,4.981,0,0,0,1.224,3.01,17.874,17.874,0,0,0,4.9,3.932v4.715s14.731,11.631,17.76,16.024c2.918,4.193,5.9,8.464,10.054,11.587a9.25,9.25,0,0,0,3.747,1.879h.249a3.928,3.928,0,0,1-1.436.87,3.194,3.194,0,0,0,1.388,2.176,3.564,3.564,0,0,0,2.626.547,6.872,6.872,0,0,0,1.989-.94l5.837-3.567a16.675,16.675,0,0,0,2.716-1.923c1.086-1.035,1.841-2.331,2.909-3.393,1.841-1.809,4.456-2.888,5.736-5.063.8-1.357.921-2.966,1.436-4.454.322-.974.792-1.9,1.1-2.871a9.872,9.872,0,0,0,.378-1.792c.2.165.414.331.635.487.451-.278,1.316.452,1.114.922s-.69.809-.856,1.3c-.368,1.114,1.086,1.94,1.694,2.958s.295,2.323.359,3.48.626,2.549.8,3.845c.424,3.027-1.16,6.22,0,9.082a3,3,0,0,0-2.992,2.2,7.889,7.889,0,0,0,.12,3.871,5.257,5.257,0,0,0-2.762,4.863,1.136,1.136,0,0,1-.129.87,1.328,1.328,0,0,1-.525.287,4.911,4.911,0,0,0-3.2,4.558,2.143,2.143,0,0,1-.092.966,2.356,2.356,0,0,1-.755.731,5.558,5.558,0,0,0-2.237,4.437,3.171,3.171,0,0,0,1.583,2.906h.064a15.411,15.411,0,0,0-5.524,9.908,38.484,38.484,0,0,0,.718,10.256h.331v.252a4.4,4.4,0,0,0,.525,1.479,20.244,20.244,0,0,1,1.979,7.621,6.4,6.4,0,0,0,.276,1.922,9.578,9.578,0,0,0,1.041,1.688c1.224,1.888,1.51,4.167,1.924,6.35a48.032,48.032,0,0,0,2.348,8.325c1.409,3.688,3.305,7.464,2.661,11.309a10.709,10.709,0,0,0-.368,2.792,7.892,7.892,0,0,0,1.16,2.932,26.461,26.461,0,0,1,1.289,2.714,2.122,2.122,0,0,0,.571,1.47c.11.287.2.583.295.87s.156.461.23.7a8.553,8.553,0,0,1,.286,1.183l-.055.913v.87a2.132,2.132,0,0,1-.442.774,3.2,3.2,0,0,1-.239.252l-.221.235a1.563,1.563,0,0,0-.248.339h0a1.543,1.543,0,0,0-.074,1,1.519,1.519,0,0,0,.092.392c.23.94.479,1.879.727,2.81.074.287.156.565.23.87.2.731.405,1.47.617,2.2v.1l.138.487.525,1.792c.11.357.221.7.322,1.061l.405,1.3q.469,1.514.967,3.027c3.287,10.248,6.813,20.434,8.986,30.943a3.329,3.329,0,0,0,1.317,1.862,7.737,7.737,0,0,0,2.293,1.166c.212,1.54.736,3.419.8,4.35.2,3.036.35,6.272-.82,9.039a.8.8,0,0,0-.7.209,27.654,27.654,0,0,0-2.108,2.114l-4.318,4.35a6.832,6.832,0,0,0-.976,1.122,3.736,3.736,0,0,0-.414,3.21,4.423,4.423,0,0,0,2.219,2.488,3.761,3.761,0,0,1,.7.374,4.088,4.088,0,0,0,.432.348,1.762,1.762,0,0,0,.921.165,34.618,34.618,0,0,0,7.246-1.166,5.96,5.96,0,0,0,2.992-1.331,5.192,5.192,0,0,0,1.022-1.879l.865-2.262a24.683,24.683,0,0,0,1.317-4.219,8.236,8.236,0,0,0-.23-4.349.864.864,0,0,0-.221.357c.212-1.261.414-2.532.626-3.8.064-.374.12-.757.175-1.148.276,3.384-.249,6.794-.083,10.187a11.293,11.293,0,0,0-.359,1.905c.239,3.114,1.611,6.516,4.272,8.368a4.464,4.464,0,0,0,1.464.722,5.473,5.473,0,0,0,1.51,0,20.238,20.238,0,0,0,5.745-1.026,6.908,6.908,0,0,0,4.134-3.706,8.25,8.25,0,0,0,.414-2.679,9.748,9.748,0,0,0-.267-2.827,20.949,20.949,0,0,0-1.51-3.3,30.283,30.283,0,0,1-1.712-4.854l-.8-2.758c-.221-.783-.451-1.566-.737-2.331a3.84,3.84,0,0,0-1.022-1.835c-.332-.244-.552-.261-.7-.122v-.3a29.482,29.482,0,0,0,.212-3.227c-.221-1.74-1.685-3.158-2.633-4.706a8.9,8.9,0,0,1-1.05-2.488,5.843,5.843,0,0,1-.129-.574,2.165,2.165,0,0,1,.525-.322l1.639.87c-1.445-10.265-.681-21.026-4.9-30.578-1.841-4.158-5.386-8.49-4.99-12.971a3.559,3.559,0,0,1-1.325-3.016,3.624,3.624,0,0,1,1.757-2.812c.709-.365,1.583-.539,2.072-1.157a3.06,3.06,0,0,0,.469-1.122,171.232,171.232,0,0,1,9.1-25.793c.82-1.836,1.667-3.654,2.523-5.472l2.854-6.133,3.48-7.464c1.178-2.514,2.366-5.385,1.252-7.916-.442-1-1.224-1.949-1.114-3.019a18.228,18.228,0,0,1,.681-1.992,4.693,4.693,0,0,0-.175-2.166c-.23-.94-.488-1.879-.755-2.81a17.454,17.454,0,0,1,2.219.4c.442-.7-.267-1.522-.7-2.236a7.222,7.222,0,0,1-.8-3.106l-.921-8.778a14.718,14.718,0,0,1-.074-3.654c.184-1.288.709-2.514.976-3.8.506-2.462,0-5,.166-7.516a32.017,32.017,0,0,1,1.215-6.542c.083-.322.156-.635.239-.957a5.821,5.821,0,0,0,1.335.217h1.141a3.856,3.856,0,0,0,.506-.122h.11a5.724,5.724,0,0,0,.543-.2c-.221-.444-.423-.87-.617-1.34-.083-.183-.157-.365-.23-.548s-.212-.513-.3-.774-.184-.478-.267-.713-.138-.4-.2-.6-.175-.548-.258-.87-.166-.574-.249-.87l.138-.27a8.116,8.116,0,0,0,1.519.983c1.841,3,3.508,6.089,5.045,9.2a2.836,2.836,0,0,0,.469-1.122,5.44,5.44,0,0,0,.654.792,9.756,9.756,0,0,0,2.145,1.488,5.73,5.73,0,0,0,2.541.87,4.877,4.877,0,0,0,3.25-1.331c2.679-2.218,4.014-5.515,5.257-8.7a62.78,62.78,0,0,0,3.959-12.814c.755-4.724.433-9.63,1.841-14.214-1.28-2.4-2.09-5.054-3.526-7.377a32.414,32.414,0,0,1-2.431-4.306,14.109,14.109,0,0,1-.433-9.952,1.514,1.514,0,0,0-1.685.087,3.332,3.332,0,0,0-1.013,1.392,11.736,11.736,0,0,0-1,5.846,2.213,2.213,0,0,1-.175,1.427,1.949,1.949,0,0,1-1.639.652,14.865,14.865,0,0,1-3.793-.652,37.219,37.219,0,0,0-10.569-.974,8.175,8.175,0,0,0-.921-.87l-.4-.3-.405-.3-.2-.157a4.534,4.534,0,0,1-.387-.322,2.382,2.382,0,0,1-.921-1.522,1.839,1.839,0,0,1,0-.226,1.611,1.611,0,0,1,0-.209,2.82,2.82,0,0,1,.212-.609,3.965,3.965,0,0,1,.2-.391l.1-.2c0-.061.065-.13.1-.191a5.549,5.549,0,0,0,.295-.731,5.085,5.085,0,0,0,.193-.757,5.393,5.393,0,0,0,.083-.774V772.9a7.522,7.522,0,0,0-.341-1.548,8.3,8.3,0,0,0-.442-1.114,12.118,12.118,0,0,0-.783-1.374,21.158,21.158,0,0,0-1.97-2.531l-.543-.6-.552-.591a20.92,20.92,0,0,1-1.6-1.853,7.1,7.1,0,0,1-.921-1.549,5.754,5.754,0,0,1-.193-.557,5.375,5.375,0,0,1-.166-1.079v-.357a12.7,12.7,0,0,1,.073-1.453c.074-.679.175-1.366.276-2.062.064-.461.138-.922.2-1.383a4.393,4.393,0,0,1,.092-.687c.055-.461.11-.922.147-1.383a12.541,12.541,0,0,0-.239-4.028,7.321,7.321,0,0,0-.433-1.288,8.053,8.053,0,0,0-.921-1.566,11.9,11.9,0,0,0-5.119-3.767,24.557,24.557,0,0,0-4.686-1.418c-.644-.13-1.28-.244-1.915-.339-9.575-1.453-19.739,1.3-25.779,8.7-3.149,3.845-5.828,8.16-6.969,12.9a17.546,17.546,0,0,0,2.2,14.067c1.188,1.74,2.762,3.2,3.8,4.993.865,1.462,1.381,3.106,2.311,4.532a11.19,11.19,0,0,0,5.11,4.063l-.405.348a13.129,13.129,0,0,0-2.863.052c-.976.157-1.924.513-2.909.626-1.215.148-2.458-.078-3.683.07-2.265.278-4.125,1.74-5.846,3.175-2.016,1.662-4.18,3.6-4.336,6.089v.07l-1.354,1.74a6.838,6.838,0,0,0-.847,1.261c-.543,1.209-.239,2.61-.534,3.9a8.1,8.1,0,0,1-1.068,2.323,52.168,52.168,0,0,1-4.6,6.49,11.348,11.348,0,0,1-2.863,2.679,5.379,5.379,0,0,1-2.983.8,19.237,19.237,0,0,1-4.364-2.758,26.93,26.93,0,0,1-3.858-4.532c-2.191-2.984,4.6,5.942,2.412,2.949l-19.647-30.934a23.971,23.971,0,0,1-.773-4.4c0-.565-.249-1.314-.856-1.331a1.065,1.065,0,0,0-.691.313,3.664,3.664,0,0,0-1.28,3.219,4.96,4.96,0,0,0-3.011.5,1.617,1.617,0,0,0-.709,1.081,1.56,1.56,0,0,0,.331,1.233v.235a1.218,1.218,0,0,0-.691,1.3,4.932,4.932,0,0,0-3.232.148c-.967.513-1.335,2.018-.4,2.61A2.677,2.677,0,0,0,1523.738,791.412Zm123.075,4.437a15.946,15.946,0,0,0,1.722.418,28.574,28.574,0,0,1,5.34,1.74,2.919,2.919,0,0,1,1.39.983,2.779,2.779,0,0,1-.166,2.471l-2.431,6.2c-.387.974-.764,1.949-1.243,2.879-.184.374-.4.748-.608,1.114q-.111-.313-.221-.6a48.76,48.76,0,0,1-1.749-5.776c-.405-1.688-.746-3.393-1.031-5.1a23.734,23.734,0,0,0-1.022-4.332Zm-2.541-4.863.184.122a2.078,2.078,0,0,1,.635.418.886.886,0,0,1,0,.87Zm-4.392-5.976,2.909.4a3.968,3.968,0,0,1,1.961.635,1.2,1.2,0,0,1,.267,1.74,4.413,4.413,0,0,1-.645.409,1.69,1.69,0,0,0-.69,1.8,19.412,19.412,0,0,0-1.667-2.445,12.437,12.437,0,0,0-1.943-1.879C1640.009,785.453,1639.954,785.227,1639.88,785.009ZM1611.92,982.769q.538.026,1.077,0a9.247,9.247,0,0,0-.175,2.471Z" transform="translate(-767.003 -447.232)" fill="url(#linear-gradient)"/>
    <path id="Path_309" data-name="Path 309" d="M1668.436,744.112c5.054.766,10.671,2.61,12.6,7.081,1.455,3.384.331,7.186,0,10.822a7.767,7.767,0,0,0,.11,2.879,10.05,10.05,0,0,0,2.67,3.958,21.155,21.155,0,0,1,3.848,5.089,7.043,7.043,0,0,1,.258,6.089,4.28,4.28,0,0,0-.635,1.6c-.064,1.244,1.307,2.027,2.32,2.819,3.793,2.966,3.627,8.369,3.683,13.049a62.865,62.865,0,0,0,6.592,27.524,9.312,9.312,0,0,1-9.962-1.227,30.533,30.533,0,0,0,2.265,6.159c-3.213,1.47-7.08-.948-8.682-3.949s-1.841-6.507-2.946-9.691-3.213-5.994-4.134-9.2a8.535,8.535,0,0,0-1.151-3.08,8.184,8.184,0,0,0-2.026-1.627,18.729,18.729,0,0,1-7.135-9.152,40.056,40.056,0,0,1-11.969,1.3c-4.033-.339-8.093-2.062-10.2-5.3-.921-1.427-1.445-3.071-2.311-4.532-1.059-1.792-2.624-3.262-3.812-4.985a17.534,17.534,0,0,1-2.191-14.049,32.863,32.863,0,0,1,6.969-12.884C1648.706,745.408,1658.87,742.659,1668.436,744.112Z" transform="translate(-819.652 -449.108)" fill="#3a3768"/>
    <path id="Path_310" data-name="Path 310" d="M1668.436,744.112c5.054.766,10.671,2.61,12.6,7.081,1.455,3.384.331,7.186,0,10.822a7.767,7.767,0,0,0,.11,2.879,10.05,10.05,0,0,0,2.67,3.958,21.155,21.155,0,0,1,3.848,5.089,7.043,7.043,0,0,1,.258,6.089,4.28,4.28,0,0,0-.635,1.6c-.064,1.244,1.307,2.027,2.32,2.819,3.793,2.966,3.627,8.369,3.683,13.049a62.865,62.865,0,0,0,6.592,27.524,9.312,9.312,0,0,1-9.962-1.227,30.533,30.533,0,0,0,2.265,6.159c-3.213,1.47-7.08-.948-8.682-3.949s-1.841-6.507-2.946-9.691-3.213-5.994-4.134-9.2a8.535,8.535,0,0,0-1.151-3.08,8.184,8.184,0,0,0-2.026-1.627,18.729,18.729,0,0,1-7.135-9.152,40.056,40.056,0,0,1-11.969,1.3c-4.033-.339-8.093-2.062-10.2-5.3-.921-1.427-1.445-3.071-2.311-4.532-1.059-1.792-2.624-3.262-3.812-4.985a17.534,17.534,0,0,1-2.191-14.049,32.863,32.863,0,0,1,6.969-12.884C1648.706,745.408,1658.87,742.659,1668.436,744.112Z" transform="translate(-819.652 -449.108)" fill="#3f3d56"/>
    <path id="Path_311" data-name="Path 311" d="M1745.275,856.328c.285,1.74.626,3.41,1.04,5.106a46.8,46.8,0,0,0,1.74,5.759,5.271,5.271,0,0,1,.543,2.61,4.734,4.734,0,0,1-.672,1.583c-2.311,3.871-5.423,7.612-5.69,12.048a6.172,6.172,0,0,1-.626,3.21q-2.679-5.428-5.9-10.6c-2.246-3.6-4.741-7.238-5.386-11.379a20.394,20.394,0,0,1,.073-5.846,12.274,12.274,0,0,1,2.228-6.15c1.519-1.879,5.708-4.724,8.415-4.141C1744.216,849.264,1744.87,853.9,1745.275,856.328Z" transform="translate(-864.618 -501.674)" fill="#f86d70"/>
    <path id="Path_312" data-name="Path 312" d="M1566.175,863.071c-3.02-1.166-6.095-2.392-8.5-4.489a26.527,26.527,0,0,1-3.858-4.524l-7.1-9.691c-1.685-2.305-3.416-4.724-3.775-7.5a24.058,24.058,0,0,1-7.1-15.224c0-.574-.239-1.314-.847-1.331a1.094,1.094,0,0,0-.7.313,3.671,3.671,0,0,0-1.271,3.219,4.963,4.963,0,0,0-3.011.5c-.847.574-1.068,1.992-.156,2.471a1.226,1.226,0,0,0-.921,1.383,4.852,4.852,0,0,0-3.231.148c-.921.513-1.335,2.01-.4,2.61a2.618,2.618,0,0,0-1.841,2.549,4.957,4.957,0,0,0,1.225,3c2.762,3.48,7.55,4.854,10.707,7.969a23.261,23.261,0,0,1,2.762,3.48l9.161,13.171c2.909,4.184,5.9,8.447,10.054,11.561a9.278,9.278,0,0,0,3.738,1.879,4.3,4.3,0,0,0,3.931-1.026,5.826,5.826,0,0,0,1.151-3.706C1566.424,867.612,1566.019,865.307,1566.175,863.071Z" transform="translate(-766.878 -487.548)" fill="#a1616a"/>
    <path id="Path_313" data-name="Path 313" d="M1661.255,1265.822a7.635,7.635,0,0,0-.976,1.122,3.736,3.736,0,0,0-.414,3.21,4.424,4.424,0,0,0,2.219,2.479,4.411,4.411,0,0,1,.7.383,4.086,4.086,0,0,0,.433.348,1.76,1.76,0,0,0,.921.165,35.31,35.31,0,0,0,7.246-1.166,5.961,5.961,0,0,0,2.992-1.331,5.526,5.526,0,0,0,1.022-1.87l.856-2.262a25.494,25.494,0,0,0,1.326-4.21,8.307,8.307,0,0,0-.239-4.35,1.37,1.37,0,0,0-.322.87,9.349,9.349,0,0,1-1.841,4.219,4.34,4.34,0,0,1-.718.87,4.832,4.832,0,0,1-2.154.87,27.94,27.94,0,0,1-4.6.557,1.514,1.514,0,0,1-.626-.07,1.048,1.048,0,0,1-.525-.618,2.474,2.474,0,0,1,0-1.74c.414-1.1,1.556-1.818,2.108-2.871.405-.774-.156-1.627-.994-.974a24.731,24.731,0,0,0-2.108,2.114Z" transform="translate(-831.29 -707.423)" fill="#3f3d56"/>
    <path id="Path_314" data-name="Path 314" d="M1673,1233.613c.249,3.645.414,7.577-1.694,10.63-.755,1.1-1.777,2.027-2.642,3.062a3.511,3.511,0,0,0-.921,1.844c-.129,1.331,1.2,2.479,2.6,2.723a9.046,9.046,0,0,0,4.171-.565,10.316,10.316,0,0,0,3.545-1.574c1.841-1.47,2.32-3.915,2.688-6.159l.856-5.22a15.562,15.562,0,0,0,.313-3.8,16.163,16.163,0,0,0-1.077-4.1l-1.418-3.915a1.829,1.829,0,0,0-.626-.974,1.934,1.934,0,0,0-1.077-.183c-1.353.061-4.769.531-5.423,1.879C1671.7,1228.481,1672.913,1232.239,1673,1233.613Z" transform="translate(-835.103 -690.873)" fill="#ee8e9e"/>
    <path id="Path_315" data-name="Path 315" d="M1673,1233.613c.249,3.645.414,7.577-1.694,10.63-.755,1.1-1.777,2.027-2.642,3.062a3.511,3.511,0,0,0-.921,1.844c-.129,1.331,1.2,2.479,2.6,2.723a9.046,9.046,0,0,0,4.171-.565,10.316,10.316,0,0,0,3.545-1.574c1.841-1.47,2.32-3.915,2.688-6.159l.856-5.22a15.562,15.562,0,0,0,.313-3.8,16.163,16.163,0,0,0-1.077-4.1l-1.418-3.915a1.829,1.829,0,0,0-.626-.974,1.934,1.934,0,0,0-1.077-.183c-1.353.061-4.769.531-5.423,1.879C1671.7,1228.481,1672.913,1232.239,1673,1233.613Z" transform="translate(-835.103 -690.873)" opacity="0.05"/>
    <path id="Path_316" data-name="Path 316" d="M1620.171,1015.872a.314.314,0,0,0,0,.1,4.188,4.188,0,0,0,.516,1.479,20.433,20.433,0,0,1,1.989,7.612,6.11,6.11,0,0,0,.267,1.922,10.126,10.126,0,0,0,1.04,1.688c1.225,1.888,1.51,4.158,1.924,6.342a47.925,47.925,0,0,0,2.347,8.317c1.409,3.68,3.305,7.455,2.661,11.309a10.728,10.728,0,0,0-.368,2.784,7.763,7.763,0,0,0,1.151,2.932,26.55,26.55,0,0,1,1.3,2.714c.377.922.783,2.01,1.1,3.027.377,1.253.635,2.732-.239,3.732a4.3,4.3,0,0,0-.709.818,2.06,2.06,0,0,0,0,1.409q.746,2.975,1.6,5.942c.442,1.549.92,3.088,1.39,4.628,3.554,11.257,7.568,22.4,9.952,33.927.341,1.661,2.587,2.853,4.336,3.21a5.887,5.887,0,0,0,4.981-1.261,2.986,2.986,0,0,0,.35-.322c1.841-1.862,2.09-4.715,1.961-7.29-.617-11.866-6.942-22.722-9.953-34.257a62.6,62.6,0,0,1-1.952-12.71c-.709-14.328-.985-29.464,3.3-43.218.921-2.862,1.943-6.089.341-8.7a8.964,8.964,0,0,0-4.732-3.271,32.114,32.114,0,0,0-23.652.574,6.63,6.63,0,0,0,0,.87,8.355,8.355,0,0,1-.479,3.949,4.629,4.629,0,0,0-.414,1.749Z" transform="translate(-812.606 -581.132)" fill="#3f3d56"/>
    <path id="Path_317" data-name="Path 317" d="M1706.751,1244.995l.8,2.758a29.642,29.642,0,0,0,1.7,4.854,20.557,20.557,0,0,1,1.519,3.288,10.062,10.062,0,0,1,.258,2.827,8.2,8.2,0,0,1-.414,2.671,6.907,6.907,0,0,1-4.134,3.706,20.537,20.537,0,0,1-5.736,1.018,4.87,4.87,0,0,1-1.51,0,4.294,4.294,0,0,1-1.464-.722c-2.661-1.844-4.033-5.219-4.272-8.36a9.8,9.8,0,0,1,.451-2.131c.2-.261,2.219.809,1.354,1.74-1.271,1.331,2.458.644,4.355.531a18.419,18.419,0,0,0,2.468-.383l3.066-.618c1-.209,2.163-.531,2.513-1.444s-.423-1.992-1.022-2.871c-1.611-2.34-2.016-5.22-2.394-7.977-.074-.548-.792-4.071.691-2.975a3.852,3.852,0,0,1,1.031,1.836A23.544,23.544,0,0,1,1706.751,1244.995Z" transform="translate(-847.287 -698.567)" fill="#3f3d56"/>
    <path id="Path_318" data-name="Path 318" d="M1645.413,1124.384c.921-1,.617-2.479.239-3.723-.147-.47-.295-.931-.46-1.392l12.052-3.845c0,1.018.092,2.036.138,3.053a62.751,62.751,0,0,0,1.952,12.718c3.01,11.526,9.335,22.383,9.952,34.24.138,2.732-.166,5.785-2.3,7.629a5.937,5.937,0,0,1-4.99,1.253c-1.74-.357-4-1.549-4.336-3.21-2.385-11.526-6.445-22.67-9.953-33.927q-1.657-5.22-2.992-10.578a2.093,2.093,0,0,1,0-1.4A4.3,4.3,0,0,1,1645.413,1124.384Z" transform="translate(-824.157 -635.683)" opacity="0.05"/>
    <path id="Path_319" data-name="Path 319" d="M1701.346,1219.43c.921,1.548,2.4,2.923,2.624,4.7a25.424,25.424,0,0,1-.212,3.228,9.628,9.628,0,0,0,.506,2.61q1.749,6,4.051,11.848a3.091,3.091,0,0,1,.322,1.609,2.924,2.924,0,0,1-2,1.879c-2.863,1.157-6.1,1.079-9.207.957a5.045,5.045,0,0,1-2.6-.574c-1.114-.722-1.39-2.149-1.464-3.419-.212-3.7.451-7.412,0-11.091-.147-1.34-.451-2.662-.672-3.984a11.059,11.059,0,0,1,.184-5.568,12.617,12.617,0,0,1,2.2-3.48,11.235,11.235,0,0,1,3.066-2.888c.368-.209,1.409-.87,1.777-.444.193.2.11.739.138.992a9.4,9.4,0,0,0,.212,1.148A9.149,9.149,0,0,0,1701.346,1219.43Z" transform="translate(-846.78 -685.502)" fill="#ee8e9e"/>
    <path id="Path_320" data-name="Path 320" d="M1643.721,1020.473a3,3,0,0,1,.23,2.61c-.405,1.575-1.068,3.08-1.611,4.619a61.3,61.3,0,0,0-2.081,8.395c-.506,2.566-1.574,5.42-1.132,8a54.83,54.83,0,0,0-6.445,18.973c-.249,1.7,3.747,3.9,3.683,5.611-.147,3.41-3.029,3.68-.921,6.4.1.139-.8,3.184-.681,3.314.865.983,1.961,1.74,2.891,2.688a20.551,20.551,0,0,1,3.047,4.219c5.524,9.378,13.433,20.008,10.984,30.447a1.839,1.839,0,0,0,1.05,1.879,5.686,5.686,0,0,0,2.32.5h.387c1.841-1.862,2.09-4.715,1.961-7.29-.617-11.866-6.942-22.722-9.952-34.258a62.593,62.593,0,0,1-1.952-12.709c-.709-14.328-.985-29.464,3.3-43.218.921-2.862,1.943-6.089.341-8.7a8.965,8.965,0,0,0-4.732-3.271,32.113,32.113,0,0,0-23.652.574,6.546,6.546,0,0,0,0,.87,8.358,8.358,0,0,1-.479,3.949,4.632,4.632,0,0,0-.469,1.74s-.221-2.305-.221-2.271c4.926.67,10.063,3.706,14.989,4.35a35.946,35.946,0,0,1,7.513,1.566A3.285,3.285,0,0,1,1643.721,1020.473Z" transform="translate(-812.328 -581.115)" opacity="0.05"/>
    <path id="Path_321" data-name="Path 321" d="M1677.015,979.112c.663,1.992,1.252,4,1.749,6.029a4.667,4.667,0,0,1,.175,2.157,18.221,18.221,0,0,0-.681,1.992c-.11,1.07.672,2.009,1.114,3.01,1.114,2.54-.074,5.4-1.243,7.916l-3.489,7.455-2.854,6.089c-.847,1.818-1.694,3.636-2.513,5.472a171.194,171.194,0,0,0-9.1,25.758,3.059,3.059,0,0,1-.47,1.122c-.488.609-1.363.783-2.072,1.157a3.615,3.615,0,0,0-1.752,2.81,3.551,3.551,0,0,0,1.329,3.01c-.4,4.48,3.149,8.8,4.981,12.953,4.208,9.569,3.443,20.286,4.9,30.534l-1.639-.87c-1.574.678-1.519,2.784-2.357,4.2-1.271,2.14-4.373,2.444-6.96,2.279a5.693,5.693,0,0,1-2.329-.5,1.829,1.829,0,0,1-1.04-1.879c2.44-10.439-5.524-21.1-10.993-30.447a20.269,20.269,0,0,0-3.047-4.21c-.921-.931-2.016-1.74-2.891-2.7-2.421-2.749-2.762-6.629-2.569-10.2a54.75,54.75,0,0,1,6.877-24.1c-.432-2.61.635-5.437,1.142-8a59.95,59.95,0,0,1,2.071-8.395c.543-1.54,1.206-3.045,1.611-4.619a3,3,0,0,0-.221-2.61,3.267,3.267,0,0,0-1.556-.948,36.385,36.385,0,0,0-7.513-1.566l-16.922-2.3a38.475,38.475,0,0,1-.718-10.248,16.051,16.051,0,0,1,11.969-13.188,2.644,2.644,0,0,1,2.2.13,93.151,93.151,0,0,1,44.809,2.706Z" transform="translate(-811.54 -565.12)" fill="#3f3d56"/>
    <path id="Path_322" data-name="Path 322" d="M1679.148,801.988a7.447,7.447,0,0,0,.737,4.576,7.31,7.31,0,0,0,1.924,2.01,14.606,14.606,0,0,0,5.579,2.61c1.2.287,2.541.478,3.333,1.383,1.188,1.357.4,3.4-.617,4.88a13.067,13.067,0,0,1-7.31,5.715c-2.495.644-5.165.252-7.715.67-1.841.3-3.591,1.026-5.413,1.435a16.616,16.616,0,0,1-14.731-3.871c2.707-1.966,5.524-4.063,6.933-7.011a9.462,9.462,0,0,0,.525-6.7c-.654-2.183-2.118-4.35-1.657-6.542s2.762-3.758,5.073-4.515a34.205,34.205,0,0,1,6.38-1.218c1.188-.157,8.765-1.74,9.207-.957.267.444-1.307,3.053-1.5,3.628A13.275,13.275,0,0,0,1679.148,801.988Z" transform="translate(-829.048 -474.458)" fill="#a1616a"/>
    <path id="Path_323" data-name="Path 323" d="M1679.148,801.988a7.447,7.447,0,0,0,.737,4.576,7.31,7.31,0,0,0,1.924,2.01,14.606,14.606,0,0,0,5.579,2.61c1.2.287,2.541.478,3.333,1.383,1.188,1.357.4,3.4-.617,4.88a13.067,13.067,0,0,1-7.31,5.715c-2.495.644-5.165.252-7.715.67-1.841.3-3.591,1.026-5.413,1.435a16.616,16.616,0,0,1-14.731-3.871c2.707-1.966,5.524-4.063,6.933-7.011a9.462,9.462,0,0,0,.525-6.7c-.654-2.183-2.118-4.35-1.657-6.542s2.762-3.758,5.073-4.515a34.205,34.205,0,0,1,6.38-1.218c1.188-.157,8.765-1.74,9.207-.957.267.444-1.307,3.053-1.5,3.628A13.275,13.275,0,0,0,1679.148,801.988Z" transform="translate(-829.048 -474.458)" opacity="0.05"/>
    <ellipse id="Ellipse_41" data-name="Ellipse 41" cx="15.366" cy="14.519" rx="15.366" ry="14.519" transform="translate(825.205 303.712)" fill="#a1616a"/>
    <path id="Path_324" data-name="Path 324" d="M1662.939,834.372l-10.413,1.653a41.2,41.2,0,0,1-7.789.74,23.569,23.569,0,0,0-4.29,0c-.985.157-1.924.513-2.918.626-1.215.148-2.449-.07-3.683.078-2.265.27-4.125,1.74-5.846,3.166-2.016,1.653-4.18,3.593-4.327,6.089a1.651,1.651,0,0,0,.12.87,2.619,2.619,0,0,0,.773.766c1.915,1.479,2.992,3.7,4.355,5.654a22.383,22.383,0,0,0,5.174,5.272c.46-.278,1.326.452,1.123.922s-.69.809-.856,1.3c-.368,1.114,1.086,1.931,1.685,2.958s.3,2.314.368,3.48.617,2.549.8,3.854c.414,3.019-1.16,6.2,0,9.065a2.984,2.984,0,0,0-2.992,2.2,7.866,7.866,0,0,0,.12,3.862,5.249,5.249,0,0,0-2.762,4.854.827.827,0,0,1-.052.722.916.916,0,0,1-.611.435,4.9,4.9,0,0,0-3.195,4.55,2.12,2.12,0,0,1-.092.966,2.184,2.184,0,0,1-.755.731,5.558,5.558,0,0,0-2.237,4.437,3.2,3.2,0,0,0,1.583,2.905,29.92,29.92,0,0,0,7,1.966A66.23,66.23,0,0,0,1640,909.62q3.165.248,6.343.183l13.939-.052c3.913,0,7.835,0,11.748-.278,3.682-.226,7.365-.661,10.91.244.442-.7-.267-1.522-.7-2.236a7.159,7.159,0,0,1-.8-3.1l-.875-8.778a14.579,14.579,0,0,1-.074-3.636c.193-1.3.709-2.523.976-3.8.506-2.462,0-5,.166-7.507a31.83,31.83,0,0,1,1.215-6.533l2.762-10.744a39.594,39.594,0,0,1,1.363-5.385q3.176-7.742,6.675-15.345a1.507,1.507,0,0,0-.12-1.357l-2.3-3.906a24.774,24.774,0,0,0-2.108-3.175,13.442,13.442,0,0,0-7.78-4.515,14.465,14.465,0,0,0-9.041,1.27c-1.077.539-2.072,1.209-3.167,1.74A13.528,13.528,0,0,1,1662.939,834.372Z" transform="translate(-814.257 -492.14)" fill="#f86d70"/>
    <path id="Path_325" data-name="Path 325" d="M1611.4,858.515l-3.628,4.576a5.8,5.8,0,0,0-.847,1.261c-.552,1.2-.249,2.61-.543,3.88a7.864,7.864,0,0,1-1.059,2.323,53.464,53.464,0,0,1-4.6,6.49,12,12,0,0,1-2.863,2.679,4.981,4.981,0,0,1-3.867.644,2.379,2.379,0,0,1,1.271,1.087,12.606,12.606,0,0,1,.921,8.49,8.382,8.382,0,0,1-1.013,2.784,4.356,4.356,0,0,1-2.311,1.888,3.194,3.194,0,0,0,1.388,2.176,3.564,3.564,0,0,0,2.626.547,6.871,6.871,0,0,0,1.989-.939l5.828-3.567a15.448,15.448,0,0,0,2.716-1.923c1.086-1.026,1.841-2.323,2.909-3.384,1.841-1.8,4.456-2.88,5.736-5.054.8-1.357.921-2.966,1.427-4.454.322-.966.8-1.888,1.1-2.862a12.163,12.163,0,0,0-1.2-9.169C1615.882,863.161,1613.553,860.916,1611.4,858.515Z" transform="translate(-799.69 -506.723)" fill="#f86d70"/>
    <path id="Path_326" data-name="Path 326" d="M1652.5,759.4a19.561,19.561,0,0,1,5.4-5.315,19.014,19.014,0,0,1,9.75-3.9,10.911,10.911,0,0,1,4.382.678c.074-4.106,1.151-6.829,3.858-6.42,5.054.766,10.671,2.61,12.6,7.081,1.455,3.384.331,7.186,0,10.822a7.762,7.762,0,0,0,.11,2.879,10.05,10.05,0,0,0,2.67,3.958,21.156,21.156,0,0,1,3.848,5.089,7.043,7.043,0,0,1,.258,6.089,4.278,4.278,0,0,0-.635,1.6c-.064,1.244,1.307,2.027,2.32,2.818,3.793,2.966,3.627,8.369,3.683,13.049a62.863,62.863,0,0,0,6.592,27.524,9.311,9.311,0,0,1-9.962-1.227,30.527,30.527,0,0,0,2.265,6.159c-3.213,1.47-7.08-.948-8.682-3.949s-1.841-6.507-2.946-9.691-3.213-5.994-4.134-9.2a8.534,8.534,0,0,0-1.151-3.08,8.188,8.188,0,0,0-2.026-1.627c-3.305-2.244,1.565-19.243.276-22.888-1.924.391-5.459-8.377-7.476-17.294a10.052,10.052,0,0,1-4.373.417,5.565,5.565,0,0,0-1.565-.1,4.3,4.3,0,0,0-1.363.522,34.361,34.361,0,0,1-4.649,2.262c-3.333,1.174-7.006,1.018-10.551.87a9.437,9.437,0,0,1,1.491-7.125Z" transform="translate(-827.11 -449.445)" fill="#3a3768"/>
    <path id="Path_327" data-name="Path 327" d="M1652.5,759.4a19.561,19.561,0,0,1,5.4-5.315,19.014,19.014,0,0,1,9.75-3.9,10.911,10.911,0,0,1,4.382.678c.074-4.106,1.151-6.829,3.858-6.42,5.054.766,10.671,2.61,12.6,7.081,1.455,3.384.331,7.186,0,10.822a7.762,7.762,0,0,0,.11,2.879,10.05,10.05,0,0,0,2.67,3.958,21.156,21.156,0,0,1,3.848,5.089,7.043,7.043,0,0,1,.258,6.089,4.278,4.278,0,0,0-.635,1.6c-.064,1.244,1.307,2.027,2.32,2.818,3.793,2.966,3.627,8.369,3.683,13.049a62.863,62.863,0,0,0,6.592,27.524,9.311,9.311,0,0,1-9.962-1.227,30.527,30.527,0,0,0,2.265,6.159c-3.213,1.47-7.08-.948-8.682-3.949s-1.841-6.507-2.946-9.691-3.213-5.994-4.134-9.2a8.534,8.534,0,0,0-1.151-3.08,8.188,8.188,0,0,0-2.026-1.627c-3.305-2.244,1.565-19.243.276-22.888-1.924.391-5.459-8.377-7.476-17.294a10.052,10.052,0,0,1-4.373.417,5.565,5.565,0,0,0-1.565-.1,4.3,4.3,0,0,0-1.363.522,34.361,34.361,0,0,1-4.649,2.262c-3.333,1.174-7.006,1.018-10.551.87a9.437,9.437,0,0,1,1.491-7.125Z" transform="translate(-827.11 -449.445)" fill="#3f3d56"/>
    <g id="Group_343" data-name="Group 343" transform="translate(826.678 294.935)" opacity="0.1">
      <path id="Path_328" data-name="Path 328" d="M1726.692,825.305a63,63,0,0,1-6.592-27.524c0-4.654.138-10.056-3.683-13.049-1.013-.792-2.385-1.575-2.329-2.819a4.3,4.3,0,0,1,.645-1.6,7.076,7.076,0,0,0-.258-6.089,21.162,21.162,0,0,0-3.848-5.089,10.067,10.067,0,0,1-2.679-3.958,8.18,8.18,0,0,1-.111-2.879c.377-3.636,1.51-7.438,0-10.822-1.841-4.35-7.19-6.194-12.116-7a2.917,2.917,0,0,1,1.326-.078c5.054.765,10.671,2.61,12.6,7.081,1.455,3.384.331,7.186,0,10.822a7.764,7.764,0,0,0,.111,2.879,10.051,10.051,0,0,0,2.67,3.958,21.154,21.154,0,0,1,3.848,5.089,7.042,7.042,0,0,1,.258,6.089,4.278,4.278,0,0,0-.635,1.6c-.064,1.244,1.307,2.027,2.32,2.819,3.793,2.966,3.627,8.369,3.683,13.049a62.865,62.865,0,0,0,6.592,27.524,9.041,9.041,0,0,1-4.88.87A8.693,8.693,0,0,0,1726.692,825.305Z" transform="translate(-1675.015 -744.352)"/>
      <path id="Path_329" data-name="Path 329" d="M1737.863,910.6a29.988,29.988,0,0,1-2.265-6.159,8.459,8.459,0,0,0,2.182,1.366,31.216,31.216,0,0,0,1.841,4.793,5.079,5.079,0,0,1-2.974.357A4.877,4.877,0,0,0,1737.863,910.6Z" transform="translate(-1693.874 -824.71)"/>
      <path id="Path_330" data-name="Path 330" d="M1685.006,756.709a11.125,11.125,0,0,0-2.928-.652h.35a10.873,10.873,0,0,1,2.6.183C1685.016,756.378,1685.006,756.535,1685.006,756.709Z" transform="translate(-1668.563 -750.22)"/>
      <path id="Path_331" data-name="Path 331" d="M1662.421,784.251a34.493,34.493,0,0,0,4.658-2.262,4.223,4.223,0,0,1,1.363-.522,5.311,5.311,0,0,1,1.437.078,5.916,5.916,0,0,0-.995.444,34.384,34.384,0,0,1-4.649,2.262,22.116,22.116,0,0,1-7.8.957A19.457,19.457,0,0,0,1662.421,784.251Z" transform="translate(-1656.437 -762.974)"/>
      <path id="Path_332" data-name="Path 332" d="M1688.506,780.786l.083.391a9.552,9.552,0,0,1-2.283.061A10.637,10.637,0,0,0,1688.506,780.786Z" transform="translate(-1670.562 -762.641)"/>
    </g>
    <path id="Path_333" data-name="Path 333" d="M1741.893,863.4a5.128,5.128,0,0,0,1.51,4.245,9.986,9.986,0,0,0,2.136,1.488,6.015,6.015,0,0,0,2.541.87,4.933,4.933,0,0,0,3.25-1.34c2.679-2.218,4.014-5.507,5.248-8.656a62.264,62.264,0,0,0,3.968-12.8c.755-4.724.433-9.621,1.841-14.206-1.271-2.4-2.081-5.046-3.526-7.359a34.074,34.074,0,0,1-2.431-4.306,14.109,14.109,0,0,1-.433-9.934,1.484,1.484,0,0,0-1.676.078,3.333,3.333,0,0,0-1.013,1.392,11.723,11.723,0,0,0-1,5.837,2.206,2.206,0,0,1-.175,1.427,1.95,1.95,0,0,1-1.639.652,15.3,15.3,0,0,1-3.793-.644,37.142,37.142,0,0,0-11.683-.913,5.784,5.784,0,0,0-2.283.522,1.991,1.991,0,0,0-1.169,1.8l9.336,1.3a4.008,4.008,0,0,1,1.97.635,1.216,1.216,0,0,1,.267,1.74,3.712,3.712,0,0,1-.645.4,1.759,1.759,0,0,0,.074,2.905,1.974,1.974,0,0,1,.635.418c.387.487-.12,1.122-.285,1.74a2.121,2.121,0,0,0,1.123,2.2,8.544,8.544,0,0,0,2.606.826,28.556,28.556,0,0,1,5.34,1.74,2.92,2.92,0,0,1,1.39.983,2.8,2.8,0,0,1-.166,2.47l-2.43,6.194c-.387.974-.764,1.94-1.243,2.879-.617,1.209-1.381,2.349-2.016,3.558a34.443,34.443,0,0,0-1.519,3.48C1744.757,858.168,1742.317,860.056,1741.893,863.4Z" transform="translate(-865.287 -482.966)" fill="#a1616a"/>
    <path id="Path_334" data-name="Path 334" d="M885.093,435.232v291.78a107.779,107.779,0,0,0-31.883-4.646c-45.914,0-83.2,30.7-83.2,74.083s37.287,73.743,83.2,73.743,83.431-31.943,83.431-78.293V589.277h242.136V727.012a107.732,107.732,0,0,0-31.883-4.646c-45.914,0-83.2,30.7-83.2,74.083s37.287,73.743,83.2,73.743,83.431-31.943,83.431-78.293V435.232Zm293.694,108.74H936.65V483.947h242.136Z" transform="translate(-410.552 -294.247)" fill="#525ffb"/>
    <path id="Path_335" data-name="Path 335" d="M418.232,370.6V566.422c-30.744-16.758-69.568-11.909-94.648,11.822s-30.156,60.422-12.376,89.447,53.98,43.142,88.25,34.415,58.059-38.121,57.994-71.658V444.807h78.625V370.6Z" transform="translate(-188.589 -261.806)" fill="#525ffb"/>
    <path id="Path_336" data-name="Path 336" d="M427.447,1270.2a51.976,51.976,0,0,0-14.408-4.819,69.2,69.2,0,0,0,10.781-2.288c9.363-2.8,14.086-6.559,10.542-8.395s-14.013-1.061-23.376,1.74a37.178,37.178,0,0,0-8.977,3.767c-.967-1.94-3.6-4.193-7.706-6.324-8.286-4.35-19.5-6.5-24.969-4.863s-3.158,6.455,5.165,10.778a51.7,51.7,0,0,0,12.889,4.532,79.825,79.825,0,0,0-8.884,1.488c-10.192,2.314-16.084,5.8-13.166,7.829s13.561,1.74,23.753-.557a46.14,46.14,0,0,0,10.68-3.567c.838,2,3.517,4.35,7.844,6.62,8.286,4.35,19.5,6.5,24.969,4.863S435.733,1274.518,427.447,1270.2Z" transform="translate(-218.823 -702.47)" fill="#6c63ff"/>
    <path id="Path_337" data-name="Path 337" d="M567.764,1153.851a25.349,25.349,0,0,0-6.988-2.34,34.551,34.551,0,0,0,5.229-1.1c4.548-1.366,6.841-3.184,5.119-4.08s-6.8-.513-11.352.87a18.65,18.65,0,0,0-4.355,1.827,8.62,8.62,0,0,0-3.738-3.071c-4.042-2.1-9.474-3.149-12.125-2.357s-1.528,3.14,2.5,5.22a25.044,25.044,0,0,0,6.279,2.192,39.707,39.707,0,0,0-4.318.731c-4.944,1.114-7.807,2.81-6.389,3.784s6.583.87,11.527-.27a22.753,22.753,0,0,0,5.193-1.74c.405.966,1.7,2.123,3.8,3.21,4.042,2.1,9.465,3.158,12.125,2.366S571.806,1155.948,567.764,1153.851Z" transform="translate(-300.485 -649.692)" fill="#6c63ff"/>
    <path id="Path_338" data-name="Path 338" d="M278.6,1028.394a15.913,15.913,0,0,0-4.4-1.461,20.118,20.118,0,0,0,3.3-.7c2.845-.87,4.281-1.992,3.2-2.549s-4.253-.322-7.1.531a11.66,11.66,0,0,0-2.762,1.14,5.31,5.31,0,0,0-2.339-1.914c-2.523-1.314-5.92-1.975-7.586-1.479s-.921,1.957,1.574,3.271a15.555,15.555,0,0,0,3.931,1.375,23.872,23.872,0,0,0-2.707.461c-3.093.7-4.889,1.74-4,2.366s4.125.531,7.218-.165a14.287,14.287,0,0,0,3.25-1.088,5.041,5.041,0,0,0,2.375,2.01c2.532,1.314,5.929,1.975,7.586,1.479S281.125,1029.707,278.6,1028.394Z" transform="translate(-169.117 -588.687)" fill="#6c63ff"/>
    <path id="Path_339" data-name="Path 339" d="M539.9,370.6v62.025H461.271V618.269c.01,28.449-17.2,54.4-44.3,66.793s-59.317,9.052-82.926-8.6c20.729,24.785,55.8,34.449,87.376,24.079s52.747-38.5,52.741-70.089V444.807h78.625V370.6Z" transform="translate(-204.377 -261.806)" opacity="0.1"/>
    <path id="Path_340" data-name="Path 340" d="M303.7,391.873l.267,1.9,8.7,1.166s.709-.5,1.841-1.192a27.782,27.782,0,0,1,8.47-3.723c4.557-.87,19.049-7,14.381-7.4s-4.189.513-4.189.513-5.147-4.776-10.459-.409c-4.033,3.314-12.889,6.881-16.931,8.4C304.495,391.6,303.7,391.873,303.7,391.873Z" transform="translate(-190.028 -266.965)" fill="#efb7b9"/>
    <path id="Path_341" data-name="Path 341" d="M358.107,358.137a15.428,15.428,0,0,1,4.171-1.009,5.262,5.262,0,0,1,3.968,1.253c.562.548.921,1.253,1.473,1.809,2.652,2.679,7.8.679,10.993,2.758,1.961,1.287,2.569,3.715,3.268,5.881s1.97,4.541,4.309,5a13.516,13.516,0,0,0,3.4-.122,3.451,3.451,0,0,1,3.057,1.061c1.086,1.557-.414,4.158,1.16,5.272,1.409.983,3.959-.391,4.944.974a1.949,1.949,0,0,1-.341,2.262,15.906,15.906,0,0,0-1.6,1.9,2.737,2.737,0,0,0,.17,2.942,3.106,3.106,0,0,0,2.822,1.251c.994-.1,2.053-.626,2.919-.165a1.928,1.928,0,0,1,.921,1.54A4.124,4.124,0,0,1,399.887,395c-1.694.1-3.25-.766-4.76-1.5s-3.287-1.348-4.852-.739a7.511,7.511,0,0,0-1.952,1.3,21.671,21.671,0,0,1-6,3.358c-1.915.713-4.143,1.14-5.984.252-2.072-1-3.139-3.436-5.331-4.176s-4.7.644-6.795,1.818-4.907,2.157-6.8.713c-2.044-1.557-1.418-4.68-2.661-6.864a6.9,6.9,0,0,0-2-2.079c-1.4-1.018-2.992-1.783-4.4-2.784a6.985,6.985,0,0,1-3-3.984c-.414-1.975.58-3.949,1.712-5.654s2.449-3.375,2.817-5.35c.276-1.479,0-3.019.359-4.48a5.67,5.67,0,0,1,3.793-3.784c1.031-.331,1.215-.244,1.74-1.1A3.646,3.646,0,0,1,358.107,358.137Z" transform="translate(-209.676 -255.029)" fill="#3f3d56"/>
    <g id="Group_344" data-name="Group 344" transform="translate(135.585 120.341)" opacity="0.1">
      <path id="Path_342" data-name="Path 342" d="M435.772,393.782a7.007,7.007,0,0,1,.166,2.61,6.677,6.677,0,0,1-.166-2.61Z" transform="translate(-388.042 -393.782)"/>
      <path id="Path_343" data-name="Path 343" d="M442.816,409.512a2.732,2.732,0,0,0-.313.957,2.794,2.794,0,0,1,.11-2.436,15.666,15.666,0,0,1,1.6-1.888,3.144,3.144,0,0,0,.46-.87l.074.078a1.949,1.949,0,0,1-.331,2.253A15.731,15.731,0,0,0,442.816,409.512Z" transform="translate(-391.146 -399.551)"/>
      <path id="Path_344" data-name="Path 344" d="M348.173,405.523c1.409,1.009,2.992,1.74,4.392,2.792a6.78,6.78,0,0,1,2,2.079c1.243,2.183.617,5.306,2.661,6.864,1.9,1.444,4.714.47,6.813-.713s4.493-2.61,6.785-1.818,3.259,3.175,5.34,4.176c1.841.87,4.06.452,5.984-.252a21.752,21.752,0,0,0,5.994-3.358,7.932,7.932,0,0,1,1.952-1.3c1.574-.6,3.351,0,4.861.748s3.066,1.6,4.751,1.5a4.217,4.217,0,0,0,3.821-3.575,2.494,2.494,0,0,1,.2.766,4.111,4.111,0,0,1-3.821,4.28c-1.685.1-3.25-.766-4.751-1.488s-3.287-1.348-4.861-.748a8.151,8.151,0,0,0-1.952,1.3,21.776,21.776,0,0,1-5.994,3.367c-1.915.7-4.152,1.131-5.984.252-2.081-1-3.139-3.436-5.34-4.176s-4.7.635-6.785,1.818-4.916,2.157-6.813.7c-2.044-1.557-1.418-4.672-2.661-6.864a6.855,6.855,0,0,0-2-2.07c-1.39-1.018-2.983-1.783-4.392-2.792a6.987,6.987,0,0,1-3.011-3.984,4.454,4.454,0,0,1-.092-1.044,7.344,7.344,0,0,0,2.9,3.549Z" transform="translate(-345.271 -397.894)"/>
    </g>
    <path id="Path_345" data-name="Path 345" d="M355.018,499.713l-3.158.635s3.112,4.837,7.909,1.662S355.018,499.713,355.018,499.713Z" transform="translate(-212.802 -326.559)" fill="#4c4981"/>
    <path id="Path_346" data-name="Path 346" d="M355.018,499.713l-3.158.635s3.112,4.837,7.909,1.662S355.018,499.713,355.018,499.713Z" transform="translate(-212.802 -326.559)" opacity="0.1"/>
    <path id="Path_347" data-name="Path 347" d="M487.9,583.248s4.382,2.14,8.461,4.619c2.928,1.74,5.7,3.714,6.6,5.167,2.173,3.48,12.733,7.255,12.733,7.255l10.477,7.534c2.467.774,4.87,3.61,5.855,4.88.295.383.47.626.47.626l4.2-.513,2.21-2.714s.562-5.985-3.8-5.915a6.282,6.282,0,0,1-2.458-.6c-4.7-1.957-11.26-8.134-11.26-8.134s-11.159-13.171-14.5-13.606a5.785,5.785,0,0,1-1.05-.252c-3.4-1.122-8.286-5.263-8.286-5.263Z" transform="translate(-277.135 -365.076)" fill="#efb7b9"/>
    <path id="Path_348" data-name="Path 348" d="M405.586,651.2c1.114,6.324,6.187,18.416,7.817,20.939,2.025,3.123,3.084,9.378,3.084,9.378l.6,4.35a4.874,4.874,0,0,0,.663,1.688,9.152,9.152,0,0,0,.589.87l8.406-2.444s-.488-1.827-1.224-3.923-1.841-4.732-2.891-5.707c-2.053-1.905-2.357-8.63-2.357-8.63s-1.712-12.927-2.237-14.554a21.34,21.34,0,0,1-.921-4.767c-.083-.87-.138-1.862-.147-2.984a57.806,57.806,0,0,0-1.326-9.569l-9.805,1.679-.258,10.361a6.538,6.538,0,0,0,.009,3.314Z" transform="translate(-238.107 -394.948)" fill="#efb7b9"/>
    <path id="Path_349" data-name="Path 349" d="M571.616,640.174c.295.383.47.626.47.626l4.2-.513,2.21-2.714s.562-5.985-3.8-5.915a6.283,6.283,0,0,1-2.458-.6c-.359,1.792,1.768,3.28,1.768,3.28s.921.609.672,3.419C574.534,639.669,572.739,640.078,571.616,640.174Z" transform="translate(-316.728 -392.546)" opacity="0.1"/>
    <path id="Path_350" data-name="Path 350" d="M570.742,632.438c.276.966,2.928,2.384,4.769,3.271.921.435,1.611.739,1.749.809.423.2,2.652-2.14,2.955-4.028s5.616-7.76,5.616-7.76a20.126,20.126,0,0,0,1.97-7.351c.2-2.566-.921-2.775-2.256-2.192a8.866,8.866,0,0,0-2.523,1.87,6.882,6.882,0,0,1-3.268,1.6,16.5,16.5,0,0,0-4.7,1.9c-1.289.783-2.541,1.74-2.762,2.61-.488,1.853,1.74,3.419,1.74,3.419s.921.609.672,3.419S570.715,632.351,570.742,632.438Z" transform="translate(-316.315 -384.445)" fill="#444053"/>
    <path id="Path_351" data-name="Path 351" d="M579.79,635.709c.921.435,1.611.739,1.749.809.423.2,2.652-2.14,2.955-4.028s5.616-7.76,5.616-7.76a20.126,20.126,0,0,0,1.97-7.351c.2-2.566-.921-2.775-2.256-2.192-.221,2.036-.764,5.994-1.841,8.055C586.64,625.7,581.254,633.577,579.79,635.709Z" transform="translate(-320.594 -384.445)" opacity="0.1"/>
    <path id="Path_352" data-name="Path 352" d="M428.65,733.867l-.083.148a9.159,9.159,0,0,0,.589.87l8.406-2.445s-.488-1.827-1.224-3.923c-3.324-.87-8.093,4.619-8.093,4.619Z" transform="translate(-248.926 -441.421)" opacity="0.1"/>
    <path id="Path_353" data-name="Path 353" d="M427.729,740.162s7.016,2.323,10.127,1.966c2.4-.27,2.5-1.322,2.339-3.48-.055-.7-.129-1.5-.175-2.418-.156-3.828-1.786-4.6-1.786-4.6-2.67-6.611-10.357,2.262-10.357,2.262l.4.731a7.628,7.628,0,0,0-.783,3.61A9.993,9.993,0,0,0,427.729,740.162Z" transform="translate(-248.567 -441.801)" fill="#444053"/>
    <path id="Path_354" data-name="Path 354" d="M427.733,749.285s7.016,2.323,10.127,1.966c2.4-.27,2.5-1.322,2.339-3.48a7.737,7.737,0,0,1-5.717,1.549,23.479,23.479,0,0,1-6.988-1.966,9.987,9.987,0,0,0,.239,1.931Z" transform="translate(-248.571 -450.923)" opacity="0.1"/>
    <path id="Path_355" data-name="Path 355" d="M361.974,416.545l2.762,11.309.562,2.331,5.073.609,5.229.626,5.69-1.949s1.584-5.115.276-8.952a5.721,5.721,0,0,0-2.633-3.28,5.82,5.82,0,0,1-1.1-.8,4.547,4.547,0,0,1-.921-1.244,4.916,4.916,0,0,1-.488-1.8c-.285-3.053,1.758-6.394,1.758-6.394s-12.061-3.889-11.122-1.374c.617,1.627-1.086,4.463-2.357,6.255-.691.966-1.252,1.635-1.252,1.635Z" transform="translate(-217.585 -278.962)" fill="#efb7b9"/>
    <ellipse id="Ellipse_42" data-name="Ellipse 42" cx="10.477" cy="9.9" rx="10.477" ry="9.9" transform="translate(144.794 113.425)" opacity="0.1"/>
    <ellipse id="Ellipse_43" data-name="Ellipse 43" cx="10.477" cy="9.9" rx="10.477" ry="9.9" transform="translate(144.748 113.06)" fill="#efb7b9"/>
    <path id="Path_356" data-name="Path 356" d="M362.357,464.676a23.673,23.673,0,0,0,2.762,5.62l14.629,3.393,10.45-10.335v-.07c-.322-.966-4.309-13.153-1.427-16.154,3.02-3.123,1.841-11.935,1.841-11.935s-5.22-5.672-6.279-7.046-7.835-2.453-7.835-2.453c.341.435.654.87.921,1.244a11.89,11.89,0,0,1,1.666,3.34,4.738,4.738,0,0,1-.138,3.628,3.848,3.848,0,0,0-.359.931c-1.142,4.724-6.353,4.063-8.424,3.593-.534-.122-.865-.226-.865-.226l-4.981.148-3.13.1s1.427,23.3,1.086,25.149a2.816,2.816,0,0,0,.083,1.079Z" transform="translate(-217.213 -289.46)" fill="#f86d70"/>
    <path id="Path_357" data-name="Path 357" d="M361.287,452.353l9.069-1.122h-.166c-.534-.122-.856-.226-.856-.226l-4.99.148-3.121.1S361.241,451.631,361.287,452.353Z" transform="translate(-217.23 -302.165)" fill="#925978"/>
    <path id="Path_358" data-name="Path 358" d="M292.611,364.614l3.931.9,6.2-.766,1.611-1.592Z" transform="translate(-138.381 -182.292)" fill="#925978"/>
    <path id="Path_359" data-name="Path 359" d="M305.031,368.8l1.777.409.727-.722Z" transform="translate(-144.254 -184.966)" fill="#925978"/>
    <path id="Path_360" data-name="Path 360" d="M362.374,461.317c2.338.226,4.493.339,4.493.339l12.052-.426V449.339a17.973,17.973,0,0,0-4.861-3.027c-2.1-.687-4.6-2.792-4.106-8.343a7.533,7.533,0,0,1,.1-.992,12.073,12.073,0,0,0,.111-1.87,9.752,9.752,0,0,0-3.342-7.325,1.565,1.565,0,0,0-.175-.148L364.684,419a2.06,2.06,0,0,0-.4.052c-.691.966-1.252,1.635-1.252,1.635l-1.445,2.993,2.762,11.309-3.13.1s1.427,23.3,1.086,25.149A2.815,2.815,0,0,0,362.374,461.317Z" transform="translate(-217.23 -286.102)" opacity="0.1"/>
    <path id="Path_361" data-name="Path 361" d="M355.187,461.761l12.052-.418v-11.9a18.085,18.085,0,0,0-4.852-3.027c-2.219-.731-4.861-3.027-4-9.334a9.982,9.982,0,0,0-3.2-9.247l-.184-.148-1.961-8.63a4.3,4.3,0,0,0-3.1,1.679,7.343,7.343,0,0,1-.727,1.009,1.9,1.9,0,0,1-2.421.679c-1.271-.531-6.739-2.714-7.964-.574s-1.455,14.884-1.455,14.884a9.662,9.662,0,0,1,3.545,5.507c.838,3.645,2.237,3.732,2.237,3.732l1.51,10.439s1.372,2.27.35,3.523" transform="translate(-205.946 -286.128)" fill="#444053"/>
    <path id="Path_362" data-name="Path 362" d="M359.825,421.789l2.053,5.811,3.922.322-.184-.148-1.961-8.63a4.3,4.3,0,0,0-3.1,1.679,7.373,7.373,0,0,1-.727.966Z" transform="translate(-216.569 -286.172)" fill="#444053"/>
    <path id="Path_363" data-name="Path 363" d="M303.7,402.215l.267,1.9,8.7,1.166s.709-.5,1.841-1.192c-.921-.2-5.248-1.087-7.513-1.74-.838-.244-1.39-.452-1.409-.592s.055-.165.193-.27C304.495,401.946,303.7,402.215,303.7,402.215Z" transform="translate(-190.028 -277.308)" opacity="0.1"/>
    <path id="Path_364" data-name="Path 364" d="M282.23,411.852s9.86,7.072,15.974,8.212c0,0,8.6,2.4,11.969,5.219l3.683-13.414L311.6,410.4s-2.7,1.575-5.018,1.053-4.889-.87-4.889-.87a39.555,39.555,0,0,0-6.251-1.618c-1.657-.13-.985-2.166.672-3.245a3.667,3.667,0,0,1,.69-.365,2.215,2.215,0,0,0,2.762.592,6.182,6.182,0,0,0,1.62-1.427h0a19.821,19.821,0,0,0,1.841-2.61s-5.147-1.044-7.706-1.792c-.838-.244-1.39-.452-1.409-.592-.074-.557,4.6-2.314,4.6-2.314s-4-1.827-5.616-.5c0,0,1.05.739.2,1.47s-11.048,8.151-11.048,8.151S277.019,408.677,282.23,411.852Z" transform="translate(-178.756 -274.67)" fill="#444053"/>
    <path id="Path_365" data-name="Path 365" d="M300.437,409.327l5.46.739a3.664,3.664,0,0,1,.691-.365,2.215,2.215,0,0,0,2.762.592,6.181,6.181,0,0,0,1.62-1.427h0a20.286,20.286,0,0,0,1.491-2.2s-5.147-1.044-7.706-1.792Z" transform="translate(-188.483 -279.009)" opacity="0.1"/>
    <path id="Path_366" data-name="Path 366" d="M301.031,408.48l5.809.792a2.215,2.215,0,0,0,2.762.592c1.666-.87,3.462-4.054,3.462-4.054s-5.147-1.044-7.706-1.792Z" transform="translate(-188.764 -278.579)" fill="#444053"/>
    <path id="Path_367" data-name="Path 367" d="M497.571,576.419l-9.676,6.916s4.382,2.14,8.461,4.619c3.563-2.279,6.923-4.35,9.474-6.272C502.433,580.517,497.571,576.419,497.571,576.419Z" transform="translate(-277.135 -365.119)" opacity="0.1"/>
    <path id="Path_368" data-name="Path 368" d="M405.586,651.2a34.387,34.387,0,0,0,7.089-1.6s1.786-.365,4.438-1.2c-.083-.87-.138-1.862-.147-2.984a57.792,57.792,0,0,0-1.326-9.569l-9.805,1.679-.258,10.361A6.538,6.538,0,0,0,405.586,651.2Z" transform="translate(-238.107 -394.948)" opacity="0.1"/>
    <path id="Path_369" data-name="Path 369" d="M367.385,539.29c1.97,2.758,7.365,14.484,7.365,14.484a49.667,49.667,0,0,0,4.106,5.976c2.145,2.549,3.627,8.282,5.257,12.866s-.479,3.723-.249,6.089,9.446-.7,9.446-.7,18.828-3.915,24.582-14.789,28.734-20.722,33.384-26.837-1.317-3.593-1.086-6.907-2.421-6.089-2.421-6.089-8.673-2.314-10.081-3.923-8.332-5.637-8.332-5.637-6.528-2.671-7.365-3.6-8.571-3.819-10.938-4.35-4.686-3.741-4.686-3.741-1.464.183-3.627-1.8-11.241-3.688-11.241-3.688c-15.495,10.787-26.2,9.282-26.2,9.282l-.249,2.036C356.807,518.107,365.415,536.532,367.385,539.29Z" transform="translate(-217.38 -325.076)" fill="#444053"/>
    <path id="Path_370" data-name="Path 370" d="M368.192,508s13.4,4.167,26.46-11.248c-15.5,10.735-26.211,9.23-26.211,9.23Z" transform="translate(-220.526 -325.128)" opacity="0.1"/>
    <path id="Path_371" data-name="Path 371" d="M411.93,533.779s17.99,24.54,19.1,25.437S412.878,533.475,411.93,533.779Z" transform="translate(-241.21 -343.714)" opacity="0.1"/>
    <path id="Path_372" data-name="Path 372" d="M396.157,530.009s12.457,18.268,12.208,20.739C408.365,550.748,396.341,533.184,396.157,530.009Z" transform="translate(-233.751 -341.823)" opacity="0.1"/>
    <path id="Path_373" data-name="Path 373" d="M381.352,540.087s2.3,10.222-1.16,16.015Z" transform="translate(-226.201 -346.882)" opacity="0.1"/>
    <path id="Path_374" data-name="Path 374" d="M372.236,541.275s-.147,8.847-1.2,10.665Z" transform="translate(-221.872 -347.478)" opacity="0.1"/>
    <path id="Path_375" data-name="Path 375" d="M343.162,373.275l16.544,6.124-6.058.748Z" transform="translate(-162.287 -187.368)" opacity="0.1"/>
    <path id="Path_376" data-name="Path 376" d="M366.325,381.926c.829.522,1.519,1.348,2.5,1.47a4.125,4.125,0,0,0,2.035-.47,7.871,7.871,0,0,1,5.22-.67c2.431.757,3.766,3.4,6.187,4.184a4.465,4.465,0,0,0,3.627-.383,3.988,3.988,0,0,0,1.841-2.471,4.963,4.963,0,0,0-1.841-4.819,11.614,11.614,0,0,0-5.147-2.21c-4.861-1.018-9.916-.679-14.878-.322a2.262,2.262,0,0,0-1.16.287c-.755.531-2.044,3.2-1.777,4.106C363.306,381.8,366.187,380.934,366.325,381.926Z" transform="translate(-218.024 -264.456)" opacity="0.1"/>
    <path id="Path_377" data-name="Path 377" d="M366.238,381.188c.829.513,1.51,1.348,2.5,1.47a4.075,4.075,0,0,0,2.025-.479,7.878,7.878,0,0,1,5.22-.67c2.431.766,3.766,3.41,6.187,4.184a4.569,4.569,0,0,0,2.32.122,4.381,4.381,0,0,0,1.307-.5,4.093,4.093,0,0,0,1.9-2.471,4.992,4.992,0,0,0-1.887-4.828,11.655,11.655,0,0,0-5.147-2.2c-4.861-1.026-9.906-.679-14.878-.331a2.289,2.289,0,0,0-1.16.3c-.746.522-2.044,3.2-1.777,4.106C363.218,381.1,366.1,380.179,366.238,381.188Z" transform="translate(-217.983 -264.083)" fill="#3f3d56"/>
    <path id="Path_378" data-name="Path 378" d="M490.83,390.762l1.584,6.046,2.053-1.174,11.159-6.359s8.452-.3,9.105-6.716-9.391-.061-9.925.426-1.749,1.348-1.749,1.348l-10.385,5.48Z" transform="translate(-278.523 -266.376)" fill="#efb7b9"/>
    <path id="Path_379" data-name="Path 379" d="M490.83,400.939l1.584,6.046,2.053-1.174c-.451-2.732-1.16-5.22-1.841-5.828Z" transform="translate(-278.523 -276.553)" opacity="0.1"/>
    <path id="Path_380" data-name="Path 380" d="M386.341,451.63l2.274,12.614,13.46-2.636c-.322-.966-4.309-13.153-1.427-16.154,3.02-3.123,1.841-11.935,1.841-11.935s-5.22-5.672-6.279-7.046-7.835-2.453-7.835-2.453a4.916,4.916,0,0,1-.488-1.8,6.986,6.986,0,0,0-.516,1.348c0,2.3.985,3.88,3.591,5.037.23.1.47.2.727.3.405.157.856.3,1.335.444l.221.061c4.336,1.218,5.275,3.671,5.275,3.671a9.018,9.018,0,0,1,1.97,6.611C400.068,443.557,386.341,451.63,386.341,451.63Z" transform="translate(-229.109 -287.715)" opacity="0.1"/>
    <path id="Path_381" data-name="Path 381" d="M387.773,440.285l2.274,12.605,15.219-2.993s-.46-4.758-1.519-6.69-.847-9.473-.847-9.473c6.445-6.559,3.057-11.892,3.057-11.892s18.938-2.906,19.26-3.48,6.638-3.758,6.638-3.758,6.859-1.662,7.789-2.61a8.138,8.138,0,0,1,1.123-.966,2.983,2.983,0,0,1,.368-.226l.506,4.132h.23a6.446,6.446,0,0,0,2.983-1.113c1.565-1.131-.414-13.527-1.933-13.962a1.848,1.848,0,0,0-.875,0,10.081,10.081,0,0,0-3.268,1.67l-.267.2-.092.078s-8.571,3.175-10.284,4.637-15.044,3.314-15.044,3.314-5.975,1.34-6.749.531-9.9-2.131-10.661-.87-2.882,1.035-2.882,1.035c-1.5-1.635-2.541-1-3.176-.061a6.378,6.378,0,0,0-.81,1.818c0,2.505,1.169,4.15,4.318,5.333.479.174.994.348,1.556.5,4.346,1.218,5.275,3.671,5.275,3.671a9,9,0,0,1,1.979,6.611C401.528,432.212,387.773,440.285,387.773,440.285Z" transform="translate(-229.786 -276.466)" fill="#444053"/>
    <path id="Path_382" data-name="Path 382" d="M487.674,400a1.5,1.5,0,0,1,.488.052c1.519.435,3.489,12.84,1.924,13.971a6.356,6.356,0,0,1-2.661,1.087h-.23l-.506-4.132a2.98,2.98,0,0,0-.368.226v-.174a10.285,10.285,0,0,0-2.164-9.178Z" transform="translate(-275.368 -276.56)" opacity="0.1"/>
    <path id="Path_383" data-name="Path 383" d="M486.862,410.862l.506,4.132a6.336,6.336,0,0,0,3.25-1.174c1.565-1.131-.414-13.527-1.933-13.962-1.2-.348-3.305,1.061-4.143,1.661a10.312,10.312,0,0,1,2.32,9.343Z" transform="translate(-275.549 -276.464)" fill="#444053"/>
    <path id="Path_384" data-name="Path 384" d="M394.135,428.164l2.182-1.931-5.69-5.22a6.378,6.378,0,0,0-.81,1.818C389.835,425.337,390.986,426.981,394.135,428.164Z" transform="translate(-230.753 -287.11)" fill="#444053"/>
    <path id="Path_385" data-name="Path 385" d="M366.151,384.677c.829.513,1.51,1.348,2.5,1.47a4.076,4.076,0,0,0,2.026-.478,7.878,7.878,0,0,1,5.22-.67c2.431.766,3.766,3.41,6.187,4.184a4.569,4.569,0,0,0,2.32.122,4.1,4.1,0,0,0,3.2-2.966,3.748,3.748,0,0,0,.1-1.1,3.9,3.9,0,0,1,0,1.844,4.058,4.058,0,0,1-1.9,2.471,4.286,4.286,0,0,1-1.307.5,4.53,4.53,0,0,1-2.311-.122c-2.431-.774-3.766-3.419-6.2-4.184a7.932,7.932,0,0,0-5.22.67,4.075,4.075,0,0,1-2.025.478c-.985-.122-1.676-.957-2.5-1.47-.138-1.009-3.02-.087-3.379-1.3a1.366,1.366,0,0,1,0-.557C363.445,384.494,366.013,383.729,366.151,384.677Z" transform="translate(-217.997 -268.311)" opacity="0.1"/>
    <path id="Path_386" data-name="Path 386" d="M383.936,442.969s-1.206,3.2.331,4.28c0,0-1.685-4.237-2.661-4.141" transform="translate(-226.87 -298.132)" opacity="0.1"/>
    <path id="Path_387" data-name="Path 387" d="M524.532,380.367s-7.78,6.359-2.154,7.386S524.532,380.367,524.532,380.367Z" transform="translate(-292.477 -266.707)" fill="#efb7b9"/>
    <g id="Group_345" data-name="Group 345" transform="translate(398.65 140.984)" opacity="0.1">
      <path id="Path_388" data-name="Path 388" d="M1201.992,734.061H959.856V936.7c0,46.332-37.517,78.293-83.431,78.293a97.023,97.023,0,0,1-32.058-5.315,93.975,93.975,0,0,0,44.026,10.535c45.914,0,83.431-31.944,83.431-78.293V739.281h230.167Z" transform="translate(-844.367 -585.235)"/>
      <path id="Path_389" data-name="Path 389" d="M975.406,430.409h11.969V375.6h230.186v-5.22H975.406Z" transform="translate(-859.936 -326.897)"/>
      <path id="Path_390" data-name="Path 390" d="M1517.043,435.231V786.68c0,46.332-37.517,78.293-83.431,78.293a97.019,97.019,0,0,1-32.057-5.315,93.974,93.974,0,0,0,44.026,10.535c45.914,0,83.431-31.943,83.431-78.293V435.231Z" transform="translate(-1107.87 -435.231)"/>
    </g>
    <path id="Path_391" data-name="Path 391" d="M1098.394,241.95c5.938,11.6,15.651,24.784,26.635,19.747s19.187-26.4,13.248-38.016-19.693-16.894-30.7-11.857S1092.447,230.372,1098.394,241.95Z" transform="translate(-564.562 -181.147)" fill="#6c63ff"/>
    <path id="Path_392" data-name="Path 392" d="M1140.383,320.922s2.145-.339,1.326-2.01a3.065,3.065,0,0,0-.258-.426,5.181,5.181,0,0,1-.819-2.157,7.405,7.405,0,0,1,.1-2.688l-5.846-.365s2.274,1.827,2.007,2.784a.553.553,0,0,1-.267.331.95.95,0,0,1-.387.157l-.442.122c-1.538.513-.921,1.244-.921,1.244C1135.08,320.3,1140.383,320.922,1140.383,320.922Z" transform="translate(-583.046 -233.029)" fill="#6c63ff"/>
    <path id="Path_393" data-name="Path 393" d="M1138.306,319.2l4.125.539a4.606,4.606,0,0,1-.12-.6c-1.05-.043-2.7-.174-3.738-.27A.553.553,0,0,1,1138.306,319.2Z" transform="translate(-584.725 -235.835)" fill="#444053"/>
    <path id="Path_394" data-name="Path 394" d="M1140.383,324.341s2.145-.339,1.326-2.01a7.008,7.008,0,0,1-2.532.1,5.6,5.6,0,0,1-3.379-2.34c-1.538.513-.921,1.244-.921,1.244C1135.08,323.715,1140.383,324.341,1140.383,324.341Z" transform="translate(-583.046 -236.449)" fill="#6c63ff"/>
    <path id="Path_395" data-name="Path 395" d="M1140.383,324.341s2.145-.339,1.326-2.01a7.008,7.008,0,0,1-2.532.1,5.6,5.6,0,0,1-3.379-2.34c-1.538.513-.921,1.244-.921,1.244C1135.08,323.715,1140.383,324.341,1140.383,324.341Z" transform="translate(-583.046 -236.449)" opacity="0.1"/>
    <path id="Path_396" data-name="Path 396" d="M1139.511,216.139s6.537-.748,8.387,3.367a5.553,5.553,0,0,0-2.348.13,3.5,3.5,0,0,1-1.528.278,8.623,8.623,0,0,0-4.511-3.775Z" transform="translate(-585.295 -184.243)" fill="#fff" opacity="0.1"/>
    <path id="Path_397" data-name="Path 397" d="M1150.578,376.773a2.247,2.247,0,0,0,.368-.348,4.948,4.948,0,0,1,1.4-1.044,5.017,5.017,0,0,1,.58-.278,8.91,8.91,0,0,1,1.842-.522,7.784,7.784,0,0,1,.92-.1l-.829-3.741v-.052l-.359-1.627a11.688,11.688,0,0,1-.829,1.366c-.423.609-.921,1.192-1.473,1.2a.676.676,0,0,1-.414-.148,1.194,1.194,0,0,1-.258-.313c-.092-.139-.166-.261-.249-.374-.921-1.253-1.5-.47-1.5-.47-1.05.357-1.482,1.54-1.639,2.732a1.6,1.6,0,0,1-.055.513,12.908,12.908,0,0,0,.092,2.531S1149.123,377.974,1150.578,376.773Z" transform="translate(-589.337 -261.034)" fill="#6c63ff"/>
    <path id="Path_398" data-name="Path 398" d="M1155.869,377.819a5.033,5.033,0,0,1,.58-.278c-.2-.809-.451-2.027-.626-2.984v-.2a.566.566,0,0,0-.055-.287.676.676,0,0,1-.414-.148l.092.583v.235Z" transform="translate(-592.788 -263.472)" fill="#444053"/>
    <path id="Path_399" data-name="Path 399" d="M1150.578,377.8a6.031,6.031,0,0,1-.773-2.279,4.68,4.68,0,0,1,.175-1.444c.046-.139.083-.278.138-.409a4.2,4.2,0,0,1,1.16-1.844c-.921-1.253-1.5-.47-1.5-.47-1.05.357-1.482,1.54-1.639,2.732a1.6,1.6,0,0,1-.055.513,12.927,12.927,0,0,0,.092,2.531S1149.123,379,1150.578,377.8Z" transform="translate(-589.338 -262.062)" fill="#6c63ff"/>
    <path id="Path_400" data-name="Path 400" d="M1150.578,377.8a6.031,6.031,0,0,1-.773-2.279,4.68,4.68,0,0,1,.175-1.444c.046-.139.083-.278.138-.409a4.2,4.2,0,0,1,1.16-1.844c-.921-1.253-1.5-.47-1.5-.47-1.05.357-1.482,1.54-1.639,2.732a1.6,1.6,0,0,1-.055.513,12.927,12.927,0,0,0,.092,2.531S1149.123,379,1150.578,377.8Z" transform="translate(-589.338 -262.062)" opacity="0.1"/>
    <path id="Path_401" data-name="Path 401" d="M1066.513,273.065a69.156,69.156,0,0,0,16.158,7.49c4.189,1.2,8.2,1.583,11.564.574a10.865,10.865,0,0,0,5.9-4.367c3.894-5.75,3.821-15.859.736-24.61-2.154-6.089-5.727-11.483-10.431-14.336-11.472-6.959-26.129-4.7-32.739,5.037S1055.041,266.106,1066.513,273.065Z" transform="translate(-545.092 -193.123)" fill="#6c63ff"/>
    <path id="Path_402" data-name="Path 402" d="M1066.513,273.065a69.156,69.156,0,0,0,16.158,7.49c4.189,1.2,8.2,1.583,11.564.574a10.865,10.865,0,0,0,5.9-4.367c3.894-5.75,3.821-15.859.736-24.61-2.154-6.089-5.727-11.483-10.431-14.336-11.472-6.959-26.129-4.7-32.739,5.037S1055.041,266.106,1066.513,273.065Z" transform="translate(-545.092 -193.123)" opacity="0.1"/>
    <path id="Path_403" data-name="Path 403" d="M1129.375,329.52c1.464,1.931,6.316-.139,6.316-.139s1.648-1.34,0-2.357a4.008,4.008,0,0,0-.451-.244,5.145,5.145,0,0,1-1.464-.983c-.147-.139-.294-.287-.432-.444a8.09,8.09,0,0,1-1.031-1.54,6.25,6.25,0,0,1-.359-.809l-5.193,2.61a12.361,12.361,0,0,1,1.63.374c.746.226,1.482.557,1.62,1.009a.52.52,0,0,1,0,.418,1.04,1.04,0,0,1-.249.322,4.371,4.371,0,0,0-.3.322C1128.408,329.216,1129.375,329.52,1129.375,329.52Z" transform="translate(-579.265 -237.913)" fill="#6c63ff"/>
    <path id="Path_404" data-name="Path 404" d="M1132.891,329.835l3.8-1.583c-.147-.139-.295-.287-.433-.444-.921.47-2.385,1.174-3.333,1.609A.52.52,0,0,1,1132.891,329.835Z" transform="translate(-582.165 -240.324)" fill="#444053"/>
    <path id="Path_405" data-name="Path 405" d="M1131.347,333.571c1.464,1.931,6.316-.139,6.316-.139s1.648-1.34,0-2.357a6.4,6.4,0,0,1-2.108,1.322,5.9,5.9,0,0,1-4.161-.322C1130.38,333.266,1131.347,333.571,1131.347,333.571Z" transform="translate(-581.238 -241.964)" fill="#6c63ff"/>
    <path id="Path_406" data-name="Path 406" d="M1131.347,333.571c1.464,1.931,6.316-.139,6.316-.139s1.648-1.34,0-2.357a6.4,6.4,0,0,1-2.108,1.322,5.9,5.9,0,0,1-4.161-.322C1130.38,333.266,1131.347,333.571,1131.347,333.571Z" transform="translate(-581.238 -241.964)" opacity="0.1"/>
    <path id="Path_407" data-name="Path 407" d="M1079.965,240.829s5.165-3.854,9.013-1.261a5.316,5.316,0,0,0-1.924,1.27,3.283,3.283,0,0,1-1.16.992A9.211,9.211,0,0,0,1079.965,240.829Z" transform="translate(-557.135 -195.58)" fill="#fff" opacity="0.1"/>
    <g id="Group_346" data-name="Group 346" transform="translate(570.661 80.411)" opacity="0.1">
      <path id="Path_408" data-name="Path 408" d="M1183.44,319.027l-1.2-5.42a10.294,10.294,0,0,1-.828,1.366,9.365,9.365,0,0,0,1.1,4.158A6.8,6.8,0,0,1,1183.44,319.027Z" transform="translate(-1175.773 -313.607)"/>
      <path id="Path_409" data-name="Path 409" d="M1173.26,321.323a2.7,2.7,0,0,0,.368-.348,5.109,5.109,0,0,1,1.4-1.053,5.019,5.019,0,0,1,.58-.278,8.243,8.243,0,0,1,1.841-.513,6.811,6.811,0,0,1,.921-.1l-1.2-5.42a10.3,10.3,0,0,1-.829,1.366c-.424.609-.967,1.2-1.473,1.209a.694.694,0,0,1-.405-.157,1.1,1.1,0,0,1-.286-.278c-.083-.139-.166-.261-.239-.374-.921-1.253-1.51-.461-1.51-.461-2.366.809-1.6,5.776-1.6,5.776S1171.777,322.515,1173.26,321.323Z" transform="translate(-1170.711 -313.607)"/>
      <path id="Path_410" data-name="Path 410" d="M1178.4,322.343a5.028,5.028,0,0,1,.58-.278c-.239-.948-.534-2.488-.727-3.48a.693.693,0,0,1-.405-.157Z" transform="translate(-1174.088 -316.027)"/>
      <path id="Path_411" data-name="Path 411" d="M1173.284,322.355a6.128,6.128,0,0,1-.773-2.288,5.177,5.177,0,0,1,1.482-3.7c-.921-1.253-1.51-.461-1.51-.461-2.366.809-1.6,5.776-1.6,5.776S1171.8,323.546,1173.284,322.355Z" transform="translate(-1170.736 -314.638)"/>
      <path id="Path_412" data-name="Path 412" d="M1173.284,322.355a6.128,6.128,0,0,1-.773-2.288,5.177,5.177,0,0,1,1.482-3.7c-.921-1.253-1.51-.461-1.51-.461-2.366.809-1.6,5.776-1.6,5.776S1171.8,323.546,1173.284,322.355Z" transform="translate(-1170.736 -314.638)" opacity="0.1"/>
    </g>
    <path id="Path_413" data-name="Path 413" d="M1171.844,319.166a2.257,2.257,0,0,0,.368-.348,5.11,5.11,0,0,1,1.4-1.044,5.03,5.03,0,0,1,.58-.278,8.239,8.239,0,0,1,1.842-.513,6.808,6.808,0,0,1,.921-.1l-1.2-5.42a10.931,10.931,0,0,1-.828,1.366c-.424.609-.921,1.2-1.473,1.2a.628.628,0,0,1-.405-.148,1.219,1.219,0,0,1-.267-.313c-.083-.139-.166-.261-.239-.374-.921-1.253-1.51-.47-1.51-.47-2.366.818-1.6,5.785-1.6,5.785S1170.362,320.367,1171.844,319.166Z" transform="translate(-599.39 -232.117)" fill="#6c63ff"/>
    <path id="Path_414" data-name="Path 414" d="M1176.972,320.2a5.014,5.014,0,0,1,.58-.278c-.24-.948-.534-2.488-.727-3.48a.628.628,0,0,1-.405-.148Z" transform="translate(-602.75 -234.546)" fill="#444053"/>
    <path id="Path_415" data-name="Path 415" d="M1171.893,320.194a6.035,6.035,0,0,1-.773-2.279,5.184,5.184,0,0,1,1.528-3.7c-.921-1.253-1.51-.47-1.51-.47-2.366.818-1.6,5.785-1.6,5.785S1170.411,321.394,1171.893,320.194Z" transform="translate(-599.439 -233.145)" fill="#6c63ff"/>
    <path id="Path_416" data-name="Path 416" d="M1171.893,320.194a6.035,6.035,0,0,1-.773-2.279,5.184,5.184,0,0,1,1.528-3.7c-.921-1.253-1.51-.47-1.51-.47-2.366.818-1.6,5.785-1.6,5.785S1170.411,321.394,1171.893,320.194Z" transform="translate(-599.439 -233.145)" opacity="0.1"/>
    <g id="Group_347" data-name="Group 347" transform="translate(565.322 69.825)" opacity="0.1">
      <path id="Path_417" data-name="Path 417" d="M1164.4,293.767a10.892,10.892,0,0,0,4.253,1.488,7.171,7.171,0,0,1,.424-.783l-5.414-2.123A10.2,10.2,0,0,1,1164.4,293.767Z" transform="translate(-1162.042 -292.349)"/>
      <path id="Path_418" data-name="Path 418" d="M1164.8,301.292s2.145.339,1.943-1.5a2.686,2.686,0,0,0-.1-.487,4.554,4.554,0,0,1-.129-1.679,4.448,4.448,0,0,1,.092-.609,8.1,8.1,0,0,1,1.013-2.514l-5.413-2.123a10.252,10.252,0,0,1,.755,1.4c.295.678.5,1.435.221,1.827a.638.638,0,0,1-.368.235,1.032,1.032,0,0,1-.414,0h-.469c-1.62,0-1.252.87-1.252.87C1160,299.091,1164.8,301.292,1164.8,301.292Z" transform="translate(-1160.596 -292.367)"/>
      <path id="Path_419" data-name="Path 419" d="M1164.716,299.108l3.683,1.74a4.393,4.393,0,0,1,.092-.609c-.976-.357-2.486-.992-3.443-1.392A.628.628,0,0,1,1164.716,299.108Z" transform="translate(-1162.537 -295.611)"/>
      <path id="Path_420" data-name="Path 420" d="M1164.787,304.808s2.145.339,1.943-1.5a6.918,6.918,0,0,1-2.431-.679,5.373,5.373,0,0,1-2.4-3.245c-1.62,0-1.252.87-1.252.87C1159.99,302.607,1164.787,304.808,1164.787,304.808Z" transform="translate(-1160.583 -295.883)"/>
      <path id="Path_421" data-name="Path 421" d="M1164.787,304.808s2.145.339,1.943-1.5a6.918,6.918,0,0,1-2.431-.679,5.373,5.373,0,0,1-2.4-3.245c-1.62,0-1.252.87-1.252.87C1159.99,302.607,1164.787,304.808,1164.787,304.808Z" transform="translate(-1160.583 -295.883)" opacity="0.1"/>
    </g>
    <path id="Path_422" data-name="Path 422" d="M1164.038,300.183s2.145.339,1.943-1.488a2.534,2.534,0,0,0-.1-.487,4.6,4.6,0,0,1-.129-1.688,4.324,4.324,0,0,1,.092-.6,6.834,6.834,0,0,1,.589-1.74,7.132,7.132,0,0,1,.424-.783l-5.414-2.131a10.213,10.213,0,0,1,.737,1.418c.295.687.5,1.435.221,1.836a.668.668,0,0,1-.368.226,1.2,1.2,0,0,1-.414,0h-.469c-1.62,0-1.252.87-1.252.87C1159.26,297.991,1164.038,300.183,1164.038,300.183Z" transform="translate(-594.908 -221.981)" fill="#6c63ff"/>
    <path id="Path_423" data-name="Path 423" d="M1164,298.034l3.683,1.74a4.305,4.305,0,0,1,.092-.6c-.976-.357-2.486-.992-3.443-1.392A.658.658,0,0,1,1164,298.034Z" transform="translate(-596.877 -225.252)" fill="#444053"/>
    <path id="Path_424" data-name="Path 424" d="M1164.038,303.717s2.145.339,1.943-1.488a7.146,7.146,0,0,1-2.43-.687,5.356,5.356,0,0,1-2.4-3.236c-1.62,0-1.252.87-1.252.87C1159.26,301.524,1164.038,303.717,1164.038,303.717Z" transform="translate(-594.908 -225.515)" fill="#6c63ff"/>
    <path id="Path_425" data-name="Path 425" d="M1164.038,303.717s2.145.339,1.943-1.488a7.146,7.146,0,0,1-2.43-.687,5.356,5.356,0,0,1-2.4-3.236c-1.62,0-1.252.87-1.252.87C1159.26,301.524,1164.038,303.717,1164.038,303.717Z" transform="translate(-594.908 -225.515)" opacity="0.1"/>
    <path id="Path_426" data-name="Path 426" d="M1126.486,348.876a10.662,10.662,0,0,1,.838-1.357c.442-.609.985-1.192,1.482-1.192a.6.6,0,0,1,.414.157,1.144,1.144,0,0,1,.258.3c.083.148.166.27.239.383.921,1.27,1.51.478,1.51.478,2.375-.783,1.657-5.768,1.657-5.768s-.921-1.87-2.394-.687a3.3,3.3,0,0,0-.377.339,5.9,5.9,0,0,1-1.989,1.314,8.661,8.661,0,0,1-1.841.5,6.181,6.181,0,0,1-.921.1Z" transform="translate(-578.604 -246.847)" fill="#6c63ff"/>
    <path id="Path_427" data-name="Path 427" d="M1131.266,348.116a.6.6,0,0,1,.414.157l-.516-3.906a4.96,4.96,0,0,1-.58.27C1130.825,345.593,1131.1,347.133,1131.266,348.116Z" transform="translate(-581.074 -248.636)" fill="#444053"/>
    <path id="Path_428" data-name="Path 428" d="M1133.625,347.171c.921,1.27,1.51.478,1.51.478,2.375-.783,1.657-5.768,1.657-5.768s-.921-1.87-2.394-.687a5.844,5.844,0,0,1,.737,2.288A5.113,5.113,0,0,1,1133.625,347.171Z" transform="translate(-582.512 -246.847)" fill="#6c63ff"/>
    <path id="Path_429" data-name="Path 429" d="M1133.625,347.171c.921,1.27,1.51.478,1.51.478,2.375-.783,1.657-5.768,1.657-5.768s-.921-1.87-2.394-.687a5.844,5.844,0,0,1,.737,2.288A5.113,5.113,0,0,1,1133.625,347.171Z" transform="translate(-582.512 -246.847)" opacity="0.1"/>
    <path id="Path_430" data-name="Path 430" d="M1116.438,351.16a16.336,16.336,0,0,0,2.762-8.7c.442-.609.985-1.192,1.482-1.192a.6.6,0,0,1,.414.157,1.144,1.144,0,0,1,.258.3c.083.148.166.27.24.383.921,1.27,1.51.478,1.51.478,2.375-.783,1.657-5.768,1.657-5.768s-.921-1.87-2.394-.687a3.3,3.3,0,0,0-.377.339,5.9,5.9,0,0,1-1.989,1.314,8.657,8.657,0,0,1-1.841.5,11.663,11.663,0,0,0-1.7-2.418,21.138,21.138,0,0,0-8.194-5.106C1109.551,338.476,1111.954,346.6,1116.438,351.16Z" transform="translate(-570.517 -241.806)" opacity="0.1"/>
    <path id="Path_431" data-name="Path 431" d="M1148.28,324.036a16.793,16.793,0,0,0,1.979-.418,18,18,0,0,0,1.758-.574l.378-.148c.488-.2.985-.418,1.482-.661s.746-.365,1.123-.565a40.075,40.075,0,0,0,16.848-19.295,24.164,24.164,0,0,0,1.648-6.629,16.862,16.862,0,0,0-.055-3.61,24.529,24.529,0,0,0-3.425-9.752c-.2-.322-.4-.626-.608-.922a22.4,22.4,0,0,0-20.577-9.952c1.786,4.88,4.327,9.038,7.908,11.2.295.687.5,1.435.221,1.836a.667.667,0,0,1-.368.226,1.2,1.2,0,0,1-.414,0h-.47c-1.62,0-1.252.87-1.252.87-.635,2.305,4.143,4.506,4.143,4.506s2.145.339,1.943-1.488a2.543,2.543,0,0,0-.1-.487,4.6,4.6,0,0,1-.129-1.688,4.286,4.286,0,0,1,.092-.6,6.829,6.829,0,0,1,.589-1.74,12.513,12.513,0,0,0,3.075,0,17.087,17.087,0,0,0,4.2-1.079c-.193.287-.368.574-.534.87a16.4,16.4,0,0,0-2.762,8.7c-.423.609-.921,1.2-1.473,1.2a.628.628,0,0,1-.405-.148,1.214,1.214,0,0,1-.267-.313c-.083-.139-.166-.261-.239-.374-.921-1.253-1.51-.47-1.51-.47-2.366.818-1.6,5.785-1.6,5.785s.921,1.862,2.4.661a2.267,2.267,0,0,0,.368-.348,5.114,5.114,0,0,1,1.4-1.044,5.029,5.029,0,0,1,.58-.278,8.244,8.244,0,0,1,1.841-.513,11.073,11.073,0,0,0,1.722,2.41l.368.374-.129.113a70.507,70.507,0,0,0-8.166,8.212,30.943,30.943,0,0,0-2.1,2.766q-.681.983-1.271,1.957a16.432,16.432,0,0,0-2.707,8.7c-.423.609-.921,1.192-1.473,1.2a.677.677,0,0,1-.414-.148,1.2,1.2,0,0,1-.258-.313c-.092-.139-.166-.261-.249-.374-.921-1.253-1.5-.47-1.5-.47A3.247,3.247,0,0,0,1148.28,324.036Z" transform="translate(-589.442 -212.012)" opacity="0.1"/>
    <g id="Group_348" data-name="Group 348" transform="translate(536.966 59.064)" opacity="0.1">
      <path id="Path_432" data-name="Path 432" d="M1165.5,284.723a3.493,3.493,0,0,0,1.547.2,5.61,5.61,0,0,1,2.265.592c-.35-4.454-6.794-5.741-6.794-5.741A8.169,8.169,0,0,1,1165.5,284.723Z" transform="translate(-1133.14 -275.275)"/>
      <path id="Path_433" data-name="Path 433" d="M1106.992,296.405c.12.87.249,1.818.405,2.74,4.189,1.2,8.2,1.583,11.564.574.746.226,1.482.557,1.62,1.009a.52.52,0,0,1,0,.418,1.041,1.041,0,0,1-.249.322q-.16.154-.3.322c-1.031,1.192-.064,1.5-.064,1.5,1.464,1.931,6.316-.139,6.316-.139s1.648-1.34,0-2.357a4.008,4.008,0,0,0-.451-.244,5.145,5.145,0,0,1-1.464-.983c-.147-.139-.295-.287-.433-.444a8.1,8.1,0,0,1-1.031-1.54,10.735,10.735,0,0,0,1.979-2.227c3.895-5.75,3.821-15.859.737-24.61C1113.649,272.343,1105.344,283.791,1106.992,296.405Z" transform="translate(-1106.784 -270.742)"/>
      <path id="Path_434" data-name="Path 434" d="M1127.707,371.672a10.876,10.876,0,0,0,4.244,1.5,6.224,6.224,0,0,1,.433-.783l-5.432-2.088a11.813,11.813,0,0,1,.755,1.366Z" transform="translate(-1116.322 -320.72)"/>
      <path id="Path_435" data-name="Path 435" d="M1128.1,379.17s2.154.348,1.943-1.488a2.486,2.486,0,0,0-.092-.487,4.622,4.622,0,0,1-.129-1.688,4.1,4.1,0,0,1,.083-.6,7.526,7.526,0,0,1,.589-1.74,6.219,6.219,0,0,1,.433-.783l-5.423-2.079a11.806,11.806,0,0,1,.737,1.409c.285.687.488,1.444.212,1.836a.609.609,0,0,1-.359.235,1.284,1.284,0,0,1-.423,0,4.422,4.422,0,0,0-.46,0c-1.63,0-1.261.87-1.261.87C1123.323,376.978,1128.1,379.17,1128.1,379.17Z" transform="translate(-1114.875 -320.72)"/>
      <path id="Path_436" data-name="Path 436" d="M1128.07,377.038l3.683,1.74a2.152,2.152,0,0,1,.083-.6c-.967-.357-2.486-.992-3.443-1.392A.611.611,0,0,1,1128.07,377.038Z" transform="translate(-1116.85 -323.973)"/>
      <path id="Path_437" data-name="Path 437" d="M1128.1,382.651s2.145.339,1.943-1.5a6.823,6.823,0,0,1-2.431-.679,5.32,5.32,0,0,1-2.4-3.236c-1.63,0-1.261.87-1.261.87C1123.313,380.459,1128.1,382.651,1128.1,382.651Z" transform="translate(-1114.873 -324.201)"/>
      <path id="Path_438" data-name="Path 438" d="M1128.1,382.651s2.145.339,1.943-1.5a6.823,6.823,0,0,1-2.431-.679,5.32,5.32,0,0,1-2.4-3.236c-1.63,0-1.261.87-1.261.87C1123.313,380.459,1128.1,382.651,1128.1,382.651Z" transform="translate(-1114.873 -324.201)" opacity="0.1"/>
      <path id="Path_439" data-name="Path 439" d="M1165.5,284.723a3.493,3.493,0,0,0,1.547.2,5.61,5.61,0,0,1,2.265.592c-.35-4.454-6.794-5.741-6.794-5.741A8.169,8.169,0,0,1,1165.5,284.723Z" transform="translate(-1133.14 -275.275)" opacity="0.1"/>
    </g>
    <path id="Path_440" data-name="Path 440" d="M1109.505,297.648c1.667,12.788,6.334,28.22,18.478,26.8s27.178-19.138,25.512-31.935-12.889-21.992-25.024-20.574S1107.83,284.869,1109.505,297.648Z" transform="translate(-571.006 -212.209)" fill="#6c63ff"/>
    <path id="Path_441" data-name="Path 441" d="M1130.586,380.541s2.145.348,1.943-1.488a3.642,3.642,0,0,0-.092-.487,4.423,4.423,0,0,1-.138-1.688,3.273,3.273,0,0,1,.092-.6,7.577,7.577,0,0,1,1.022-2.514L1128,371.633s1.528,2.427.921,3.253a.637.637,0,0,1-.368.235,1.5,1.5,0,0,1-.414,0h-.46c-1.63,0-1.261.87-1.261.87C1125.807,378.358,1130.586,380.541,1130.586,380.541Z" transform="translate(-579.077 -262.323)" fill="#6c63ff"/>
    <path id="Path_442" data-name="Path 442" d="M1130.568,378.4l3.683,1.74a3.263,3.263,0,0,1,.092-.6c-.976-.357-2.486-.992-3.443-1.392A.63.63,0,0,1,1130.568,378.4Z" transform="translate(-581.066 -265.593)" fill="#444053"/>
    <path id="Path_443" data-name="Path 443" d="M1130.606,384.066s2.145.348,1.942-1.488a6.725,6.725,0,0,1-2.431-.687,5.286,5.286,0,0,1-2.394-3.236c-1.63,0-1.261.87-1.261.87C1125.828,381.882,1130.606,384.066,1130.606,384.066Z" transform="translate(-579.097 -265.848)" fill="#6c63ff"/>
    <path id="Path_444" data-name="Path 444" d="M1130.606,384.066s2.145.348,1.942-1.488a6.725,6.725,0,0,1-2.431-.687,5.286,5.286,0,0,1-2.394-3.236c-1.63,0-1.261.87-1.261.87C1125.828,381.882,1130.606,384.066,1130.606,384.066Z" transform="translate(-579.097 -265.848)" opacity="0.1"/>
    <path id="Path_445" data-name="Path 445" d="M1165.066,281.223s6.445,1.287,6.795,5.742a5.524,5.524,0,0,0-2.274-.583,3.53,3.53,0,0,1-1.537-.209A8.229,8.229,0,0,0,1165.066,281.223Z" transform="translate(-597.381 -216.94)" fill="#fff" opacity="0.1"/>
    <path id="Path_446" data-name="Path 446" d="M1129.285,380.961a3.98,3.98,0,0,1,2.854,1.521,3.542,3.542,0,0,1,.636,3.037c-.81,2.566-4.143,3.375-6.316,5.089a10.228,10.228,0,0,0-3.48,7.125,16.921,16.921,0,0,0,5.312,13.814c1.952,1.818,4.309,3.21,6.233,5.054a29.983,29.983,0,0,1,5.386,7.76,17.51,17.51,0,0,1,2.385,6.524c.322,3.662-1.63,7.168-3.959,10.108s-5.119,5.6-6.923,8.856a17.683,17.683,0,0,0-1.132,14.589,1.878,1.878,0,0,0,.654.974.761.761,0,0,0,.586.119.725.725,0,0,0,.482-.337" transform="translate(-577.445 -267.005)" fill="none" stroke="#444053" stroke-miterlimit="10" stroke-width="1.747"/>
    <path id="Path_447" data-name="Path 447" d="M1139.7,379.668a1.667,1.667,0,0,1,.083,2.21,2.915,2.915,0,0,1-2.246.983c-1.04,0-2.2-.3-3.057.27a2.442,2.442,0,0,0-.921,1.888,9.123,9.123,0,0,1-.23,2.131,4.212,4.212,0,0,1-.994,1.531,4.978,4.978,0,0,1-1.841,1.27c-1.537.565-3.314.052-4.889.522-2.072.618-3.186,2.732-3.812,4.7a12.82,12.82,0,0,0-.451,7.29,24.543,24.543,0,0,0,2.09,4.471,9.7,9.7,0,0,1,1.363,4.663,4.267,4.267,0,0,1-2.6,3.915" transform="translate(-576.549 -266.356)" fill="none" stroke="#444053" stroke-miterlimit="10" stroke-width="1.747"/>
    <path id="Path_448" data-name="Path 448" d="M1044.167,487.088c-2.477,3.114-3.416,8.09-7.467,8.847-2.09.391-4.161-.626-6.03-1.6-4.355-2.3-8.838-4.611-13.81-5.367s-10.459.331-13.718,3.906c-2.219,2.453-3.13,5.741-5.082,8.386a18.319,18.319,0,0,1-10.312,6.4,44.576,44.576,0,0,1-12.5,1.009c-1.556-.044-3.25-.157-4.41-1.131a10.111,10.111,0,0,1-1.841-2.653c-2-3.167-5.948-4.906-9.842-5.141a27.159,27.159,0,0,0-11.343,2.271c-1.841.713-3.683,1.531-5.653,1.348-2.762-.261-4.8-2.366-6.5-4.393A86.3,86.3,0,0,1,924.489,481.8" transform="translate(-483.608 -317.623)" fill="none" stroke="#444053" stroke-miterlimit="10" stroke-width="1.747"/>
    <path id="Path_449" data-name="Path 449" d="M869.672,763.72c.985-3.384,1.63-6.359,1.63-6.359a12.751,12.751,0,0,1,1.841-6.446l.046-.931h0l.276-6.864a22.464,22.464,0,0,0-1.685-3.662c-1.224-2.2.414-10.065.414-10.065s5.3-10.97,4.41-18.077,11.232-31.039,11.232-31.039a29.145,29.145,0,0,0-.764-6.959,5.6,5.6,0,0,1-.083-1.461v-.122c.359-4.654,4.6-13.258,4.6-13.258l.157-16.668s-2.09-9.917,2.513-22.957c1.6-4.55,2.661-8.195,3.351-11.013.083-.322.156-.626.221-.922-8.286-1.514-14.657-2.749-14.657-2.749s5.625-18.99,9.041-22.227,6.445-13.693,6.445-13.693,2.256-13.475-.341-17.529-2.67-10.935-2.67-10.935-6.113-4.541-6.822-6.49-1.841-6.307-1.749-8.586.921-4.289.746-5.489,2.071-5.689,1.1-7.882a5.781,5.781,0,0,1-.331-2.1s0,0,0-.061a27.627,27.627,0,0,1,.783-5.6,17.216,17.216,0,0,1,6.353-2.914l.156-.513.405-1.331c.221-.131.433-.235.635-.331V498l.138-1.949-.81-4.411c-1.62-7.673,9.207-8.421,9.207-8.421a5.6,5.6,0,0,1,3.149-2.41c2.191-.644-.11,11.457-1.151,12.179-.783.557-3.287,4.289-4.493,6.089h0l-.2.3a4.346,4.346,0,0,1,.479.5l-.516,2.61-.083.4a10.8,10.8,0,0,1,1.6,2.827s-2.053,1.966-1.749,4.263a12.776,12.776,0,0,1-.865,5.22c.12-.113,1.565-1.479,2.928-1.087s5.183,1.627,5.183,1.627,2.863.592,2.578,1.174,1.841,3.306,1.841,3.306l8.065-6.542c.083-.209.175-.409.249-.626a16.355,16.355,0,0,0,.8-3.01,18.3,18.3,0,0,1-2.449-.87,5.335,5.335,0,0,1-2.09-1.374,7.536,7.536,0,0,1-1.114-3.2c-.534-2.157-1.768-4.1-2.633-6.159a18.724,18.724,0,0,1-1.1-10.935,6.965,6.965,0,0,1,1.326-3.14c1.326-1.6,3.683-2.184,5.367-3.428s2.882-3.219,4.861-4.132a9.8,9.8,0,0,1,5.9-.261,32.634,32.634,0,0,1,10.827,4.167c1.1.67,2.311,1.453,3.618,1.27a4.895,4.895,0,0,0,2.762-1.74v-.1l.083-.1a12.282,12.282,0,0,1,.985,5.524,3.477,3.477,0,0,1-.074.87v.3a1.17,1.17,0,0,0,0,.252h0a1.416,1.416,0,0,0,0,.391,2.794,2.794,0,0,0,.681,1.018,5.193,5.193,0,0,1,.6.87.967.967,0,0,0-.092-.3,4.174,4.174,0,0,1,.709,2.34,2.259,2.259,0,0,1-.645,1.627,7.984,7.984,0,0,1-1.307.913,13.72,13.72,0,0,1-7.66,14.258c-.092.2-.193.409-.285.618a16.676,16.676,0,0,0-1.731,7.934,1.614,1.614,0,0,0,.074.583,3.807,3.807,0,0,1,.258.313h0s12.779.583,15.9-1.888,7.365,6.577,7.365,6.577,4.557,1,5.524.2,6.3.1,6.3.1a11.987,11.987,0,0,1,8.1-2.462,24.225,24.225,0,0,1,5.994-2.871h.147a6.989,6.989,0,0,1,2.891-.244s6.491-4.68,8.433-7.246,11.048-12.04,11.122-12.075l.046-.478.156-1.418a5.912,5.912,0,0,0,.783.1c.055-.139.12-.3.2-.487a25.326,25.326,0,0,1,2.016-3.958s.074-1.8-.469-2.27.525-7.038.525-7.038,6.169-12.309,10.873-2.784c0,0,9.345,6.4,1,13.153,0,0-3.268,1.348-3.775,2.5-.331.748-1.51,2.827-2.292,4.2-.138.226-.258.435-.359.618l.092.078-.166,1.166-.074.452c1.491.87,2.486,1.74,2.21,2.323a12.833,12.833,0,0,0-1.049,3.2s-11.674,12.77-13.35,18.355c0,0-30.557,15.659-40.427,16.529l1.363,8.447a64.991,64.991,0,0,1,.11,6.846c-.2,1.792.773,10,.773,10s1.215,12.04,2.587,13.771.819,8.908.819,8.908a57.017,57.017,0,0,0,1.556,10.256c1.252,4.611,0,10.2,0,10.2s4.539,10.97-7.08,3.219c0,0-5.846-.557-12.576-1.018v.644c0,.818,0,1.74-.074,2.61-.156,6.185-.47,14.7-1.022,21.13-.994,11.361-5.579,33.753-5.579,33.753l-.46,11.309a13.938,13.938,0,0,1,.212,3.245,20.213,20.213,0,0,1-3.683,11.213l-1.409,7.473s-2.357,4.889-2.523,7.829a3.52,3.52,0,0,0,.064.722,5,5,0,0,1,.055,1.166c0,3.428-2.532,11.553-2.532,11.553s-.47,8.264-1.841,8.7c-1.132.374,1.307,4.819,2.035,6.089a2.15,2.15,0,0,0,.055-.235l.157.261a5.557,5.557,0,0,1,.322,2.105,2.968,2.968,0,0,1-1.574,2.853c-2.55,1.34-3.931,2.5-1.841,3.045.8.218,1.657.3,2.292.548,0-.1.083-.191.12-.278a1.305,1.305,0,0,1,.8,1.488,5.856,5.856,0,0,1-.921,2.775,29.416,29.416,0,0,1-3.793,5.976l-1-.139a4.542,4.542,0,0,0,.543,1.044,4.168,4.168,0,0,0,1.427,1.3,4.766,4.766,0,0,0,1.768.644,5.147,5.147,0,0,1,3.683,1.844c1.234,1.636,1.97,3.845-.691,5.663l-9.492,2.714s-16.2,1.392-15.209-1.992,1.639-6.359,1.639-6.359a12.929,12.929,0,0,1,1.6-5.95,6.237,6.237,0,0,1,.608-.87l-.571-.087s-.865-7.586-2.385-9.082c-.35-.348-.424-.609-.322-.8-.147-.418.267-.644.8-.757a1.251,1.251,0,0,0,.1.3,8.855,8.855,0,0,1,1.574-.1s.691-3.932-.921-5.437a1.458,1.458,0,0,1-.285-1.183,6.123,6.123,0,0,1,.249-1.609l.055.1a56.674,56.674,0,0,1,4.134-9.152s.285-3.593-.709-5.063.921-19.53.921-19.53,0-8.76,1.307-12.8-1.086-8.917-1.086-8.917v-.261a.182.182,0,0,0,0-.061l.212-1.375v.087c.359-2.305,1.031-6.481,1.473-8.412.635-2.732.525-15.937.525-15.937l-2.136-5.724-4.6,9.569-4.953,12.727s-2.32,2.653-2.486,5.42v.409a6.806,6.806,0,0,1,0,.87,7.406,7.406,0,0,1-1.547,4.567s-1.427,6.089-3.324,7.56-2.016,4.48-2.016,4.48-2.6,8.786-3.683,10.309c-.921,1.279-1.132,4.889-1.169,5.994h0v.322s-.442,3.158-.534,5.828v.879a9.149,9.149,0,0,0,.184,2.166s0,.078,0,.122v-.444a21.3,21.3,0,0,1,.451,5.55c-.074,3.184-.737,6.959-2.872,9.082-3.683,3.706-5.9,3.149-5.9,3.149s1.51,4.854,3.563,5.889a.924.924,0,0,1,.221.139.456.456,0,0,1,.064-.278,2.25,2.25,0,0,1,.543,1.809c.064,2.114-1.482,5.489-2.891,7.012a4.238,4.238,0,0,1-1.841.913l.322.209c.258.139.488.252.709.348a3.52,3.52,0,0,0,1.059.3,5.09,5.09,0,0,1,3.683,1.844c1.243,1.635,1.979,3.845-.681,5.663l-9.5,2.714S868.678,767.1,869.672,763.72Z" transform="translate(-457.663 -314.566)" fill="url(#linear-gradient-2)"/>
    <path id="Path_450" data-name="Path 450" d="M972.823,1052.683l9.207-2.723c2.578-1.827,1.841-4.028.672-5.672a4.882,4.882,0,0,0-3.517-1.836,4.5,4.5,0,0,1-1.712-.644,4,4,0,0,1-1.381-1.3,6.056,6.056,0,0,1-.921-3.349s-9.851-3.114-12.687-.461a7.124,7.124,0,0,0-1.271,1.627,13.3,13.3,0,0,0-1.519,6.02s-.626,2.966-1.583,6.359S972.823,1052.683,972.823,1052.683Z" transform="translate(-499.488 -595.631)" fill="#2d293d"/>
    <path id="Path_451" data-name="Path 451" d="M888.895,1041.006l9.207-2.723c2.578-1.827,1.841-4.028.672-5.663a4.845,4.845,0,0,0-3.526-1.836,3.748,3.748,0,0,1-1.022-.3,4.681,4.681,0,0,1-.681-.348c-2.495-1.409-2.339-4.6-2.339-4.6s-9.842-3.114-12.678-.461a6.936,6.936,0,0,0-1,1.192,13.016,13.016,0,0,0-1.786,6.455s-.635,2.975-1.593,6.359S888.895,1041.006,888.895,1041.006Z" transform="translate(-459.78 -589.791)" fill="#2d293d"/>
    <path id="Path_452" data-name="Path 452" d="M965.305,1036.7a7.127,7.127,0,0,0-1.271,1.627h0l14.86,2.175a6.056,6.056,0,0,1-.921-3.349S968.141,1034.048,965.305,1036.7Z" transform="translate(-502.31 -595.629)" opacity="0.1"/>
    <path id="Path_453" data-name="Path 453" d="M880.565,1026.218l-.11,2.61c2.173,3.706,13.433,3.323,16.765,1.627a4.7,4.7,0,0,1-.681-.348c-2.486-1.383-2.329-4.576-2.329-4.576s-9.842-3.114-12.678-.461A6.958,6.958,0,0,0,880.565,1026.218Z" transform="translate(-462.783 -589.791)" opacity="0.1"/>
    <path id="Path_454" data-name="Path 454" d="M877.783,865.03a22.469,22.469,0,0,1,1.63,3.662l-.387,9.465c2.375,4.045,15.651,3.21,17.493,1.114s4-7.655,2.007-8.7-3.443-5.889-3.443-5.889,2.136.557,5.717-3.149,2.909-12.257,2.357-14.319.368-8.865.368-8.865.064-4.8,1.142-6.316,3.6-10.317,3.6-10.317.12-2.993,1.961-4.489,3.222-7.56,3.222-7.56a7.513,7.513,0,0,0,1.482-5.106c-.258-3.01,2.412-6.15,2.412-6.15l4.833-12.788,4.456-9.569,2.016,5.785s.092,13.205-.525,15.946-1.676,10.022-1.676,10.022,2.338,4.88,1.031,8.917-1.28,12.788-1.28,12.788-1.841,18.06-.921,19.53.681,5.063.681,5.063-5.635,10.361-4.042,11.857.921,5.437.921,5.437-3.545-.13-2.081,1.366,2.366,9.038,2.366,9.038l15.265,2.236a29.923,29.923,0,0,0,3.683-5.985c2.21-4.35-.212-3.976-2.237-4.524s-.681-1.74,1.786-3.053,1.206-4.637,1.206-4.637-3.443-6.011-2.154-6.446,1.758-8.7,1.758-8.7,2.928-9.734,2.4-12.4,2.394-8.917,2.394-8.917l1.2-7.516a19.841,19.841,0,0,0,3.37-14.154l.479-11.622s4.465-22.4,5.441-33.77c.617-7.273.921-17.233,1.077-23.444.083-3.48.11-5.794.11-5.794l-54.568-7.386a40.085,40.085,0,0,1-1.307,7.655c-.672,2.827-1.7,6.472-3.259,11.022-4.474,13.049-2.458,22.957-2.458,22.957L897.136,784s-5.275,10.97-4.419,14.841a29.967,29.967,0,0,1,.737,6.959s-11.775,23.932-10.919,31.039-4.29,18.086-4.29,18.086S876.6,862.829,877.783,865.03Z" transform="translate(-461.319 -440.051)" fill="#3f3d56"/>
    <path id="Path_455" data-name="Path 455" d="M927.559,879.684l-16.572-2.705S920.046,886.426,927.559,879.684Z" transform="translate(-477.223 -515.991)" opacity="0.05"/>
    <path id="Path_456" data-name="Path 456" d="M915.686,846.236s-.8,5.55,2.762,7.777C918.411,854.013,911.985,852.786,915.686,846.236Z" transform="translate(-478.902 -500.559)" opacity="0.1"/>
    <path id="Path_457" data-name="Path 457" d="M920.018,810.69s13.506,11.352,18.607,10.639S920.018,810.69,920.018,810.69Z" transform="translate(-481.493 -482.716)" opacity="0.1"/>
    <path id="Path_458" data-name="Path 458" d="M981.258,894.131s10.5,2.662,10.643,6.69S981.258,894.131,981.258,894.131Z" transform="translate(-510.455 -524.601)" opacity="0.1"/>
    <path id="Path_459" data-name="Path 459" d="M970.482,994.306s14.85,3.175,10.532,4.819a75.619,75.619,0,0,1-11.324,2.8S964.857,1002.022,970.482,994.306Z" transform="translate(-504.071 -574.886)" opacity="0.05"/>
    <g id="Group_349" data-name="Group 349" transform="translate(416.02 292.655)" opacity="0.05">
      <path id="Path_460" data-name="Path 460" d="M996,1007.922a2.787,2.787,0,0,0,1.445-2l.147.261s1.261,3.28-1.206,4.628l-.8.461c-.442-.1-.921-.174-1.372-.3C992.191,1010.419,993.581,1009.271,996,1007.922Z" transform="translate(-932.142 -873.372)"/>
      <path id="Path_461" data-name="Path 461" d="M961.721,1004.113c-.4-.374-.341-1.3-.046-2.471a6.343,6.343,0,0,1,.709,3.48A2.808,2.808,0,0,0,961.721,1004.113Z" transform="translate(-917.102 -871.223)"/>
      <path id="Path_462" data-name="Path 462" d="M970.77,887.074a15.28,15.28,0,0,1,.829,4.437,17.309,17.309,0,0,0-1.031-3.071S970.641,887.909,970.77,887.074Z" transform="translate(-921.419 -813.714)"/>
      <path id="Path_463" data-name="Path 463" d="M906.345,870.606a5.3,5.3,0,0,1-.083-1.314c.147.87.249,1.74.313,2.471C906.51,871.38,906.409,871,906.345,870.606Z" transform="translate(-891.003 -804.788)"/>
      <path id="Path_464" data-name="Path 464" d="M968.079,969.928a7.328,7.328,0,0,1-.276-2.679,8.556,8.556,0,0,1,.6,3.393,3.279,3.279,0,0,0-.322-.713Z" transform="translate(-920.1 -853.959)"/>
      <path id="Path_465" data-name="Path 465" d="M959.948,1017.782a44.355,44.355,0,0,1,1.455,7.42l15.265,2.236a29.924,29.924,0,0,0,3.683-5.985c.193-.383.35-.731.479-1.044.921.435,1.224,1.348-.092,3.932a29.865,29.865,0,0,1-3.683,5.994l-15.265-2.236s-.838-7.594-2.3-9.091C958.732,1018.278,959.229,1017.938,959.948,1017.782Z" transform="translate(-916.001 -879.325)"/>
      <path id="Path_466" data-name="Path 466" d="M998.58,857.447s-.46,8.264-1.749,8.7h0c-.58-1.392-.921-2.706-.377-2.9,1.289-.435,1.749-8.7,1.749-8.7s2.937-9.734,2.412-12.4,2.394-8.908,2.394-8.908l1.2-7.516a19.866,19.866,0,0,0,3.37-14.162l.47-11.622s4.474-22.4,5.441-33.762c.626-7.281.921-17.233,1.086-23.444,0-1.122.046-2.123.055-2.966l.442.061s0,2.314-.11,5.794c-.147,6.211-.46,16.172-1.077,23.444-.976,11.37-5.441,33.77-5.441,33.77l-.479,11.622a19.841,19.841,0,0,1-3.37,14.154l-1.2,7.516s-2.918,6.255-2.394,8.917S998.58,857.447,998.58,857.447Z" transform="translate(-933.532 -739.773)"/>
      <path id="Path_467" data-name="Path 467" d="M897.63,1021.96a13.705,13.705,0,0,0,2.661-5.611c1.51,1.392-.506,6.516-2.274,8.5s-15.108,2.932-17.493-1.114l.092-2.279C883.931,1024.788,895.862,1023.935,897.63,1021.96Z" transform="translate(-878.836 -878.606)"/>
      <path id="Path_468" data-name="Path 468" d="M877.389,998.917a23.55,23.55,0,0,1,1.63,3.662l-.074,1.679c-.258-.618-.635-1.453-1.169-2.444a6.8,6.8,0,0,1-.433-2.984Z" transform="translate(-877.321 -869.812)"/>
      <path id="Path_469" data-name="Path 469" d="M911.386,986.551a21.877,21.877,0,0,1-1.132-2.9s2.136.557,5.708-3.149c2.615-2.7,2.965-7.96,2.762-11.422.552,2.062,1.224,10.6-2.357,14.319C914.01,985.829,912.3,986.421,911.386,986.551Z" transform="translate(-892.895 -854.88)"/>
      <path id="Path_470" data-name="Path 470" d="M926.16,885.576a59.465,59.465,0,0,0-.543,7.09,10.621,10.621,0,0,0-.221-1.122c-.552-2.053.368-8.865.368-8.865s.074-4.793,1.151-6.316,3.591-10.309,3.591-10.309.12-3,1.961-4.489S935.7,854,935.7,854a7.57,7.57,0,0,0,1.473-5.106c-.258-3.01,2.412-6.15,2.412-6.15l4.843-12.788,4.447-9.569,2.053,5.715v1.827l-1.657-4.645-4.428,9.569-4.833,12.788s-2.67,3.14-2.412,6.15a7.513,7.513,0,0,1-1.482,5.107s-1.39,6.089-3.222,7.56-1.961,4.489-1.961,4.489-2.523,8.795-3.6,10.309S926.16,885.576,926.16,885.576Z" transform="translate(-899.973 -780.237)"/>
    </g>
    <path id="Path_471" data-name="Path 471" d="M923.682,496.926l.773,4.41-.129,1.949-.1,1.435,5.266.7.635-1.018h0c1.179-1.836,3.6-5.568,4.364-6.089,1.013-.748,3.25-12.849,1.123-12.179a5.457,5.457,0,0,0-3.047,2.418S922.117,489.253,923.682,496.926Z" transform="translate(-483.151 -319.788)" fill="#ffcdd3"/>
    <path id="Path_472" data-name="Path 472" d="M924.856,521.512l5.266.7.635-1.018h0a4.833,4.833,0,0,0-5.8-1.122Z" transform="translate(-483.781 -336.579)" opacity="0.1"/>
    <path id="Path_473" data-name="Path 473" d="M922.131,524.295l6.914,1.74.193-.974.5-2.61a4.841,4.841,0,0,0-3.113-1.884,5.028,5.028,0,0,0-3.608.762l-.4,1.34Z" transform="translate(-482.493 -337.048)" fill="#dce6f2"/>
    <path id="Path_474" data-name="Path 474" d="M1137.328,496.141l7.3,4.045.727-1.3c.764-1.374,1.906-3.48,2.228-4.2.488-1.148,3.683-2.505,3.683-2.505,8.083-6.759-.921-13.145-.921-13.145-4.539-9.526-10.532,2.792-10.532,2.792s-1.022,6.568-.506,7.038.451,2.262.451,2.262a25.589,25.589,0,0,0-1.961,3.967A7.894,7.894,0,0,0,1137.328,496.141Z" transform="translate(-584.263 -314.419)" fill="#ffcdd3"/>
    <path id="Path_475" data-name="Path 475" d="M1137.328,515.985l7.3,4.045.727-1.3c-1.022-.87-4.6-3.862-5.855-3.775a9.244,9.244,0,0,1-1.768,0C1137.466,515.568,1137.328,515.985,1137.328,515.985Z" transform="translate(-584.263 -334.263)" opacity="0.1"/>
    <path id="Path_476" data-name="Path 476" d="M1135.721,518.4l8.212,4.2.239-1.74.166-1.166s-4.7-4.106-6.132-4.01a7.992,7.992,0,0,1-2.182-.087l-.156,1.427Z" transform="translate(-583.503 -334.589)" fill="#dce6f2"/>
    <path id="Path_477" data-name="Path 477" d="M960.087,541.024s36.339,5.22,29.6,2.871c-4.686-1.635-6.445-4.55-6.73-7.734a17.181,17.181,0,0,1,1.685-7.925,33.612,33.612,0,0,1,3.517-6.089s-27.307-15.519-22.262-2.131a20.171,20.171,0,0,1,1.326,6.307,16.742,16.742,0,0,1-.976,6.289,18.926,18.926,0,0,1-6.159,8.412Z" transform="translate(-500.443 -334.074)" fill="#ffcdd3"/>
    <path id="Path_478" data-name="Path 478" d="M970.614,519.951a20.172,20.172,0,0,1,1.326,6.307c2.541,2.175,5.432,2.149,9.124,2.279,2.854.1,5.975.87,8.286-.339a33.607,33.607,0,0,1,3.517-6.089S965.532,506.563,970.614,519.951Z" transform="translate(-505.123 -334.044)" opacity="0.1"/>
    <ellipse id="Ellipse_44" data-name="Ellipse 44" cx="15.099" cy="14.267" rx="15.099" ry="14.267" transform="translate(461.845 166.89)" fill="#ffcdd3"/>
    <path id="Path_479" data-name="Path 479" d="M960.087,557.877s36.339,5.22,29.6,2.871c-4.686-1.635-6.445-4.55-6.73-7.734-1.74-1.923-5.34-3.4-7.651-4.2a11.57,11.57,0,0,0-6.61-.339,9.621,9.621,0,0,0-2.449.966A18.92,18.92,0,0,1,960.087,557.877Z" transform="translate(-500.443 -350.926)" opacity="0.1"/>
    <path id="Path_480" data-name="Path 480" d="M922.131,526.29l6.914,1.74.193-.974a6.345,6.345,0,0,0-6.62-2.41Z" transform="translate(-482.493 -339.043)" opacity="0.1"/>
    <path id="Path_481" data-name="Path 481" d="M1135.721,519.837l8.212,4.2.239-1.74a63.379,63.379,0,0,0-8.286-3.836Z" transform="translate(-583.503 -336.027)" opacity="0.1"/>
    <path id="Path_482" data-name="Path 482" d="M925.974,733.367c14.049,2.61,34.065,6.089,37.278,5.3,2.679-.67,11.14-.278,18.487.226.083-3.48.11-5.794.11-5.794l-54.568-7.386a40.094,40.094,0,0,1-1.307,7.655Z" transform="translate(-484.31 -440.06)" opacity="0.1"/>
    <path id="Path_483" data-name="Path 483" d="M899.563,626.251s46.236,9.239,51.29,7.986,30.631,1.235,30.631,1.235c11.241,7.725,6.868-3.236,6.868-3.236s1.243-5.594,0-10.2a59.286,59.286,0,0,1-1.482-10.256s.543-7.177-.782-8.908S983.6,589.1,983.6,589.1s-.921-8.195-.737-9.987-.1-6.846-.1-6.846l-1.307-8.447c9.557-.87,39.156-16.581,39.156-16.581,1.63-5.576,12.945-18.373,12.945-18.373a13.021,13.021,0,0,1,1.013-3.2c.847-1.888-10.413-6.089-10.413-6.089s-8.9,9.517-10.781,12.083-8.176,7.264-8.176,7.264a6.559,6.559,0,0,0-2.762.244h-.147a23.085,23.085,0,0,0-5.809,2.879,11.468,11.468,0,0,0-7.844,2.471s-5.174-.87-6.095-.1-5.321-.191-5.321-.191-4.079-9.03-7.1-6.559-15.4,1.905-15.4,1.905c-1.556-2.131-5.524-3.767-7.991-4.619a11.57,11.57,0,0,0-6.61-.348,8.686,8.686,0,0,0-2.661,1.1l-7.789,6.672s-2.053-2.714-1.777-3.306-2.486-1.174-2.486-1.174-3.683-1.209-5.018-1.618-2.716.966-2.836,1.087a13.285,13.285,0,0,0,.847-5.22c-.285-2.288,1.694-4.254,1.694-4.254-4.014-10.439-14.39-2.21-14.39-2.21s-1.372,5.594-.442,7.786-1.289,6.672-1.086,7.882-.635,3.219-.727,5.5a31.049,31.049,0,0,0,1.685,8.577c.681,1.94,6.592,6.481,6.592,6.481s.1,6.846,2.605,10.9.3,17.529.3,17.529-2.965,10.439-6.279,13.693S899.563,626.251,899.563,626.251Z" transform="translate(-471.82 -336.588)" fill="#3f3d56"/>
    <path id="Path_484" data-name="Path 484" d="M1034.083,573.194s1.556-3.906,2.836-4.219a30.4,30.4,0,0,0,3.747-1.427l-.755-1.505s-4.815,1.061-5.635,2.357S1034.083,573.194,1034.083,573.194Z" transform="translate(-535.329 -359.911)" opacity="0.1"/>
    <path id="Path_485" data-name="Path 485" d="M1083.319,561.753c.212,1.2,11.453,2.7,11.453,2.7l-5.524-5.62h-.138A23.067,23.067,0,0,0,1083.319,561.753Z" transform="translate(-558.721 -356.29)" opacity="0.1"/>
    <path id="Path_486" data-name="Path 486" d="M985.672,645.589c.129-.13-29.848,32.935-51.244,12.423C934.465,658.012,969.312,663.779,985.672,645.589Z" transform="translate(-488.308 -399.84)" opacity="0.1"/>
    <path id="Path_487" data-name="Path 487" d="M1030.428,611.249a51.86,51.86,0,0,1-7.071,10.491,43.867,43.867,0,0,1-10.781,9.1S1030.051,613.459,1030.428,611.249Z" transform="translate(-525.266 -382.603)" opacity="0.1"/>
    <path id="Path_488" data-name="Path 488" d="M1048.784,573.939s-3.333,11.535-10.845,15.224Z" transform="translate(-537.26 -363.874)" opacity="0.1"/>
    <path id="Path_489" data-name="Path 489" d="M1057.688,576.625c.083-.217,2.163,9.3-10.072,14.075C1047.616,590.7,1052.79,589.248,1057.688,576.625Z" transform="translate(-541.837 -365.221)" opacity="0.1"/>
    <path id="Path_490" data-name="Path 490" d="M918.594,555.442c.193,0-6.086,3.48-7.817,5.115C910.777,560.574,914.994,555.085,918.594,555.442Z" transform="translate(-477.123 -354.581)" opacity="0.1"/>
    <path id="Path_491" data-name="Path 491" d="M978.725,509.369a2.97,2.97,0,0,1-1.252,1.879,3.212,3.212,0,0,1-1.436.252c-4.6.1-9.409.122-13.6-1.74a5.138,5.138,0,0,1-2.016-1.374,7.664,7.664,0,0,1-1.077-3.193c-.516-2.157-1.712-4.1-2.541-6.159a19.3,19.3,0,0,1-1.05-10.883,7.132,7.132,0,0,1,1.28-3.149c1.289-1.6,3.535-2.184,5.2-3.436s2.762-3.219,4.714-4.132c1.74-.87,3.812-.652,5.708-.27a30.781,30.781,0,0,1,10.477,4.158c1.068.67,2.237,1.444,3.508,1.27a4.882,4.882,0,0,0,2.679-1.8,12.451,12.451,0,0,1,.921,6.255,2.683,2.683,0,0,0,0,.94,2.9,2.9,0,0,0,.663,1.009c1.086,1.288,1.712,3.288.543,4.5-.506.539-1.271.809-1.768,1.348-.921.966-.672,2.418-.7,3.706a1.83,1.83,0,0,1-.387,1.253,2.05,2.05,0,0,1-1.841.348,5.515,5.515,0,0,0-1.979-.252A3.363,3.363,0,0,0,983,501.087C980.686,503.549,979.747,506.324,978.725,509.369Z" transform="translate(-498.228 -315.128)" fill="#3f3d56"/>
    <g id="Group_350" data-name="Group 350" transform="translate(461.587 165.481)" opacity="0.1">
      <path id="Path_492" data-name="Path 492" d="M963.911,520.1a5.111,5.111,0,0,0,2.026,1.375c4.189,1.827,8.986,1.809,13.6,1.74a3.464,3.464,0,0,0,1.436-.252,2.969,2.969,0,0,0,1.252-1.888c1.022-3.036,1.961-5.811,4.189-8.29a3.326,3.326,0,0,1,1.777-1.192,5.513,5.513,0,0,1,1.979.252,2.03,2.03,0,0,0,1.841-.357,1.831,1.831,0,0,0,.387-1.253c0-1.279-.193-2.732.69-3.7.5-.548,1.261-.818,1.777-1.348a2.669,2.669,0,0,0,.405-2.845c.755,1.235,1.05,2.8.064,3.819-.516.531-1.28.809-1.777,1.348-.921.966-.663,2.418-.691,3.706a1.83,1.83,0,0,1-.387,1.253,2.05,2.05,0,0,1-1.841.348,5.561,5.561,0,0,0-1.979-.252,3.325,3.325,0,0,0-1.777,1.192c-2.228,2.479-3.176,5.22-4.189,8.3a2.97,2.97,0,0,1-1.252,1.879,3.213,3.213,0,0,1-1.436.252c-4.6.1-9.409.122-13.6-1.74a5.111,5.111,0,0,1-2.025-1.374,3.8,3.8,0,0,1-.608-1.174Z" transform="translate(-963.773 -493.415)"/>
      <path id="Path_493" data-name="Path 493" d="M1020.528,491.4a2.033,2.033,0,0,1-.433-.739,2.466,2.466,0,0,1,0-.931,12.567,12.567,0,0,0-.5-5.22l.083-.087a12.545,12.545,0,0,1,.875,6.255,4.345,4.345,0,0,0-.028.722Z" transform="translate(-990.174 -484.419)"/>
    </g>
    <path id="Path_494" data-name="Path 494" d="M985.675,558.642s-18.957,1.67-20.54-1.07" transform="translate(-502.83 -355.659)" opacity="0.1"/>
    <path id="Path_495" data-name="Path 495" d="M923.562,542.226s-10.477-.365-12.889,3.262" transform="translate(-477.074 -347.95)" opacity="0.1"/>
  </g>
</svg>
